<?xml version="1.0" encoding="UTF-8"?>
<!DOCTYPE svg PUBLIC "-//W3C//DTD SVG 1.1//EN" "http://www.w3.org/Graphics/SVG/1.1/DTD/svg11.dtd">
<svg xmlns="http://www.w3.org/2000/svg" version="1.1" width="1200px" height="1200px" style="shape-rendering:geometricPrecision; text-rendering:geometricPrecision; image-rendering:optimizeQuality; fill-rule:evenodd; clip-rule:evenodd" xmlns:xlink="http://www.w3.org/1999/xlink">
<g><path style="opacity:0.965" fill="#fefefe" d="M 993.5,251.5 C 985.163,253.004 977.163,255.837 969.5,260C 957.295,268.264 945.295,276.764 933.5,285.5C 926.286,290.267 919.286,295.267 912.5,300.5C 906.86,304.147 901.527,308.147 896.5,312.5C 888.812,317.008 881.478,322.008 874.5,327.5C 860.658,336.921 846.991,346.588 833.5,356.5C 830.527,358.147 827.86,360.147 825.5,362.5C 821.618,364.934 817.952,367.601 814.5,370.5C 803.201,377.81 792.201,385.476 781.5,393.5C 778.953,394.934 776.619,396.6 774.5,398.5C 773.128,399.512 771.795,400.512 770.5,401.5C 713.354,441.578 656.354,481.911 599.5,522.5C 507.149,457.142 414.815,391.808 322.5,326.5C 311.449,318.118 300.116,310.118 288.5,302.5C 285.403,299.112 281.736,296.445 277.5,294.5C 274.048,291.601 270.382,288.934 266.5,286.5C 254.234,277.688 241.9,268.855 229.5,260C 221.424,256.031 213.091,253.198 204.5,251.5C 219.504,251.667 234.504,251.5 249.5,251C 239.233,243.073 229.233,234.74 219.5,226C 154.667,161.167 89.8333,96.3333 25,31.5C 20.3858,23.7123 14.7191,16.7123 8,10.5C 7.62576,9.58377 7.12576,8.75044 6.5,8C 6.83333,7.83333 7.16667,7.66667 7.5,7.5C 19.9402,17.1036 31.9402,27.2703 43.5,38C 107,101.5 170.5,165 234,228.5C 239.593,236.016 245.426,243.349 251.5,250.5C 292.829,251.667 334.163,251.833 375.5,251C 366.5,242 357.5,233 348.5,224C 351.725,218.722 356.058,213.722 361.5,209C 369.012,204.247 376.346,204.58 383.5,210C 389.468,217.116 389.968,224.616 385,232.5C 382.333,235.167 379.667,237.833 377,240.5C 376.501,244.152 376.335,247.818 376.5,251.5C 534.5,251.667 692.5,251.5 850.5,251C 840.233,243.073 830.233,234.74 820.5,226C 755.667,161.167 690.833,96.3333 626,31.5C 621.386,23.7123 615.719,16.7123 609,10.5C 608.626,9.58377 608.126,8.75044 607.5,8C 607.833,7.83333 608.167,7.66667 608.5,7.5C 620.94,17.1036 632.94,27.2703 644.5,38C 708,101.5 771.5,165 835,228.5C 840.593,236.016 846.426,243.349 852.5,250.5C 893.829,251.667 935.163,251.833 976.5,251C 967.5,242 958.5,233 949.5,224C 952.725,218.722 957.058,213.722 962.5,209C 970.012,204.247 977.346,204.58 984.5,210C 990.468,217.116 990.968,224.616 986,232.5C 983.333,235.167 980.667,237.833 978,240.5C 977.501,244.152 977.335,247.818 977.5,251.5C 982.833,251.5 988.167,251.5 993.5,251.5 Z M 498.5,82.5 C 500.857,82.3367 503.19,82.5034 505.5,83C 501.298,86.8666 497.465,91.0332 494,95.5C 493.598,94.1279 493.098,92.7946 492.5,91.5C 493.745,87.9355 495.745,84.9355 498.5,82.5 Z M 510.5,88.5 C 511.803,97.3612 507.803,101.194 498.5,100C 503.002,96.6642 507.002,92.8309 510.5,88.5 Z M 473.5,107.5 C 475.857,107.337 478.19,107.503 480.5,108C 476.298,111.867 472.465,116.033 469,120.5C 467.381,114.968 468.881,110.634 473.5,107.5 Z M 485.5,113.5 C 487.128,121.384 483.794,125.218 475.5,125C 475.167,124.667 474.833,124.333 474.5,124C 478.668,120.998 482.335,117.498 485.5,113.5 Z M 421.5,159.5 C 425.5,164.5 429.5,169.5 433.5,174.5C 429.787,177.537 425.787,180.204 421.5,182.5C 415.018,181.487 411.851,177.487 412,170.5C 414.284,166.051 417.451,162.384 421.5,159.5 Z M 371.5,212.5 C 379.139,214.094 381.972,218.761 380,226.5C 377,229.5 374,232.5 371,235.5C 366.801,230.966 362.301,226.799 357.5,223C 361.272,218.029 365.939,214.529 371.5,212.5 Z M 972.5,212.5 C 980.139,214.094 982.972,218.761 981,226.5C 978,229.5 975,232.5 972,235.5C 967.801,230.966 963.301,226.799 958.5,223C 962.272,218.029 966.939,214.529 972.5,212.5 Z"/></g>
<g><path style="opacity:0.119" fill="#fefffe" d="M 500.5,74.5 C 513.359,75.888 519.192,83.2213 518,96.5C 515.056,103.643 509.723,107.643 502,108.5C 486.947,104.676 482.613,95.6763 489,81.5C 492.225,77.9793 496.058,75.646 500.5,74.5 Z M 498.5,82.5 C 495.745,84.9355 493.745,87.9355 492.5,91.5C 493.098,92.7946 493.598,94.1279 494,95.5C 497.465,91.0332 501.298,86.8666 505.5,83C 503.19,82.5034 500.857,82.3367 498.5,82.5 Z M 510.5,88.5 C 507.002,92.8309 503.002,96.6642 498.5,100C 507.803,101.194 511.803,97.3612 510.5,88.5 Z"/></g>
<g><path style="opacity:0.119" fill="#fefffe" d="M 1101.5,74.5 C 1114.36,75.888 1120.19,83.2213 1119,96.5C 1116.06,103.643 1110.72,107.643 1103,108.5C 1087.95,104.676 1083.61,95.6763 1090,81.5C 1093.23,77.9793 1097.06,75.646 1101.5,74.5 Z M 1099.5,82.5 C 1101.86,82.3367 1104.19,82.5034 1106.5,83C 1102.3,86.8666 1098.47,91.0332 1095,95.5C 1094.6,94.1279 1094.1,92.7946 1093.5,91.5C 1094.74,87.9355 1096.74,84.9355 1099.5,82.5 Z M 1111.5,88.5 C 1112.8,97.3612 1108.8,101.194 1099.5,100C 1104,96.6642 1108,92.8309 1111.5,88.5 Z"/></g>
<g><path style="opacity:0.118" fill="#fefefe" d="M 475.5,99.5 C 486.846,100.016 493.179,105.849 494.5,117C 493.304,121.392 491.304,125.392 488.5,129C 479.766,134.955 471.599,134.122 464,126.5C 457.83,113.486 461.663,104.486 475.5,99.5 Z M 473.5,107.5 C 468.881,110.634 467.381,114.968 469,120.5C 472.465,116.033 476.298,111.867 480.5,108C 478.19,107.503 475.857,107.337 473.5,107.5 Z M 485.5,113.5 C 482.335,117.498 478.668,120.998 474.5,124C 474.833,124.333 475.167,124.667 475.5,125C 483.794,125.218 487.128,121.384 485.5,113.5 Z"/></g>
<g><path style="opacity:0.118" fill="#fefefe" d="M 1076.5,99.5 C 1087.85,100.016 1094.18,105.849 1095.5,117C 1094.3,121.392 1092.3,125.392 1089.5,129C 1080.77,134.955 1072.6,134.122 1065,126.5C 1058.83,113.486 1062.66,104.486 1076.5,99.5 Z M 1074.5,107.5 C 1076.86,107.337 1079.19,107.503 1081.5,108C 1077.3,111.867 1073.47,116.033 1070,120.5C 1068.38,114.968 1069.88,110.634 1074.5,107.5 Z M 1086.5,113.5 C 1088.13,121.384 1084.79,125.218 1076.5,125C 1076.17,124.667 1075.83,124.333 1075.5,124C 1079.67,120.998 1083.33,117.498 1086.5,113.5 Z"/></g>
<g><path style="opacity:0.114" fill="#fefffe" d="M 451.5,118.5 C 456.201,119.684 457.367,122.351 455,126.5C 454.333,129.167 454.333,131.833 455,134.5C 459,138.5 463,142.5 467,146.5C 467.781,147.944 467.614,149.277 466.5,150.5C 465.186,151.313 464.019,152.313 463,153.5C 457.256,148.427 452.256,142.76 448,136.5C 445.682,129.778 446.849,123.778 451.5,118.5 Z"/></g>
<g><path style="opacity:0.114" fill="#fefffe" d="M 1052.5,118.5 C 1057.2,119.684 1058.37,122.351 1056,126.5C 1055.33,129.167 1055.33,131.833 1056,134.5C 1060,138.5 1064,142.5 1068,146.5C 1068.78,147.944 1068.61,149.277 1067.5,150.5C 1066.19,151.313 1065.02,152.313 1064,153.5C 1058.26,148.427 1053.26,142.76 1049,136.5C 1046.68,129.778 1047.85,123.778 1052.5,118.5 Z"/></g>
<g><path style="opacity:0.114" fill="#fefffe" d="M 425.5,153.5 C 425.5,152.833 425.167,152.5 424.5,152.5C 424.5,151.833 424.167,151.5 423.5,151.5C 423.5,150.833 423.167,150.5 422.5,150.5C 422.5,149.833 422.167,149.5 421.5,149.5C 426.297,144.202 431.297,139.035 436.5,134C 439.284,133.583 441.284,134.75 442.5,137.5C 440.785,139.874 438.785,142.04 436.5,144C 442.904,148.397 448.738,153.564 454,159.5C 454.767,163.382 453.267,165.548 449.5,166C 443.232,160.405 437.732,154.239 433,147.5C 430.894,150.118 428.394,152.118 425.5,153.5 Z"/></g>
<g><path style="opacity:0.114" fill="#fefffe" d="M 1026.5,153.5 C 1026.5,152.833 1026.17,152.5 1025.5,152.5C 1025.5,151.833 1025.17,151.5 1024.5,151.5C 1024.5,150.833 1024.17,150.5 1023.5,150.5C 1023.5,149.833 1023.17,149.5 1022.5,149.5C 1027.3,144.202 1032.3,139.035 1037.5,134C 1040.28,133.583 1042.28,134.75 1043.5,137.5C 1041.79,139.874 1039.79,142.04 1037.5,144C 1043.9,148.397 1049.74,153.564 1055,159.5C 1055.77,163.382 1054.27,165.548 1050.5,166C 1044.23,160.405 1038.73,154.239 1034,147.5C 1031.89,150.118 1029.39,152.118 1026.5,153.5 Z"/></g>
<g><path style="opacity:0.119" fill="#fefffe" d="M 421.5,149.5 C 422.167,149.5 422.5,149.833 422.5,150.5C 423.167,150.5 423.5,150.833 423.5,151.5C 424.167,151.5 424.5,151.833 424.5,152.5C 425.167,152.5 425.5,152.833 425.5,153.5C 425.586,154.496 425.252,155.329 424.5,156C 430.235,159.727 435.402,164.227 440,169.5C 442.88,174.666 443.214,179.999 441,185.5C 438.165,191.981 434.998,191.981 431.5,185.5C 421.389,191.843 412.889,190.176 406,180.5C 403.771,174.669 404.105,169.002 407,163.5C 411.702,158.63 416.535,153.963 421.5,149.5 Z M 421.5,159.5 C 425.5,164.5 429.5,169.5 433.5,174.5C 429.787,177.537 425.787,180.204 421.5,182.5C 415.018,181.487 411.851,177.487 412,170.5C 414.284,166.051 417.451,162.384 421.5,159.5 Z"/></g>
<g><path style="opacity:0.119" fill="#fefffe" d="M 1022.5,149.5 C 1023.17,149.5 1023.5,149.833 1023.5,150.5C 1024.17,150.5 1024.5,150.833 1024.5,151.5C 1025.17,151.5 1025.5,151.833 1025.5,152.5C 1026.17,152.5 1026.5,152.833 1026.5,153.5C 1026.59,154.496 1026.25,155.329 1025.5,156C 1031.23,159.727 1036.4,164.227 1041,169.5C 1043.88,174.666 1044.21,179.999 1042,185.5C 1039.16,191.981 1036,191.981 1032.5,185.5C 1022.39,191.843 1013.89,190.176 1007,180.5C 1004.77,174.669 1005.1,169.002 1008,163.5C 1012.7,158.63 1017.54,153.963 1022.5,149.5 Z M 1022.5,159.5 C 1026.5,164.5 1030.5,169.5 1034.5,174.5C 1030.79,177.537 1026.79,180.204 1022.5,182.5C 1016.02,181.487 1012.85,177.487 1013,170.5C 1015.28,166.051 1018.45,162.384 1022.5,159.5 Z"/></g>
<g><path style="opacity:0.121" fill="#fefefe" d="M 391.5,181.5 C 395.967,181.133 400.3,181.633 404.5,183C 409.349,187.681 414.015,192.515 418.5,197.5C 417.284,200.25 415.284,201.417 412.5,201C 408.833,197.333 405.167,193.667 401.5,190C 393.554,186.919 388.554,189.586 386.5,198C 387.717,199.648 388.55,201.481 389,203.5C 393.214,207.378 397.048,211.545 400.5,216C 399.708,217.96 398.375,219.46 396.5,220.5C 389.53,215.037 383.864,208.537 379.5,201C 379.007,191.832 383.007,185.332 391.5,181.5 Z"/></g>
<g><path style="opacity:0.121" fill="#fefefe" d="M 992.5,181.5 C 996.967,181.133 1001.3,181.633 1005.5,183C 1010.35,187.681 1015.02,192.515 1019.5,197.5C 1018.28,200.25 1016.28,201.417 1013.5,201C 1009.83,197.333 1006.17,193.667 1002.5,190C 994.554,186.919 989.554,189.586 987.5,198C 988.717,199.648 989.55,201.481 990,203.5C 994.214,207.378 998.048,211.545 1001.5,216C 1000.71,217.96 999.375,219.46 997.5,220.5C 990.53,215.037 984.864,208.537 980.5,201C 980.007,191.832 984.007,185.332 992.5,181.5 Z"/></g>
<g><path style="opacity:0.992" fill="#d52d28" d="M 204.5,251.5 C 213.091,253.198 221.424,256.031 229.5,260C 241.9,268.855 254.234,277.688 266.5,286.5C 265.908,289.127 265.575,291.794 265.5,294.5C 263.217,294.392 261.217,293.559 259.5,292C 247.833,283.667 236.167,275.333 224.5,267C 194.624,254.1 171.457,261.6 155,289.5C 147.005,312.539 151.838,332.372 169.5,349C 182.323,357.664 194.989,366.497 207.5,375.5C 207.833,376.5 208.5,377.167 209.5,377.5C 338.248,468.484 467.248,559.817 596.5,651.5C 597.719,650.737 598.719,649.737 599.5,648.5C 600.281,649.737 601.281,650.737 602.5,651.5C 611.771,645.284 620.937,638.951 630,632.5C 632.73,633.728 634.564,635.728 635.5,638.5C 624.167,646.833 612.833,655.167 601.5,663.5C 599.345,663.628 597.345,663.128 595.5,662C 483.137,582.157 370.804,502.324 258.5,422.5C 258.44,421.957 258.107,421.624 257.5,421.5C 256.503,428.468 256.17,435.468 256.5,442.5C 254.519,440.856 252.519,439.19 250.5,437.5C 249.833,604.666 249.167,771.666 248.5,938.5C 248.5,770.5 248.5,602.5 248.5,434.5C 248.666,428.158 248.5,421.825 248,415.5C 236.892,407.368 225.726,399.368 214.5,391.5C 213.5,390.833 212.5,390.167 211.5,389.5C 209.749,383.614 205.749,380.614 199.5,380.5C 199.167,380.5 198.833,380.5 198.5,380.5C 187.41,372.11 176.077,363.943 164.5,356C 158.922,351.093 154.089,345.593 150,339.5C 149.5,367.165 149.333,394.831 149.5,422.5C 149.5,422.833 149.5,423.167 149.5,423.5C 147.519,425.144 145.519,426.81 143.5,428.5C 144.685,431.269 146.518,432.269 149,431.5C 149.667,433.833 149.667,436.167 149,438.5C 146.486,435.823 144.653,436.323 143.5,440C 144.985,442.652 146.985,444.818 149.5,446.5C 149.5,446.833 149.5,447.167 149.5,447.5C 149.666,451.514 149.499,455.514 149,459.5C 146.508,461.497 143.675,462.497 140.5,462.5C 140.5,462.167 140.5,461.833 140.5,461.5C 140.5,454.833 140.5,448.167 140.5,441.5C 140.5,438.167 140.5,434.833 140.5,431.5C 140.333,389.499 140.5,347.499 141,305.5C 147.677,270.314 168.844,252.314 204.5,251.5 Z"/></g>
<g><path style="opacity:1" fill="#d44b3d" d="M 266.5,286.5 C 270.382,288.934 274.048,291.601 277.5,294.5C 276.903,294.735 276.57,295.235 276.5,296C 277.515,299.861 279.181,303.361 281.5,306.5C 275.628,303.473 270.128,299.807 265,295.5C 263.029,315.87 271.862,329.036 291.5,335C 296.904,335.772 302.238,335.439 307.5,334C 299.176,331.021 294.676,325.187 294,316.5C 291.809,315.167 289.976,313.5 288.5,311.5C 289.376,311.631 290.043,311.298 290.5,310.5C 289.215,307.979 288.548,305.313 288.5,302.5C 300.116,310.118 311.449,318.118 322.5,326.5C 320.608,327.702 318.774,329.035 317,330.5C 316.383,331.449 316.549,332.282 317.5,333C 335.368,345.392 353.035,357.892 370.5,370.5C 435.472,436.305 500.972,501.638 567,566.5C 567.667,565.833 567.667,565.167 567,564.5C 504.38,503.047 442.214,441.047 380.5,378.5C 384.262,380.413 387.929,382.579 391.5,385C 460.658,434.412 529.991,483.579 599.5,532.5C 643.676,501.579 687.676,470.412 731.5,439C 732.745,438.209 734.078,437.709 735.5,437.5C 733.205,440.297 730.705,442.964 728,445.5C 725.149,460.695 731.316,468.195 746.5,468C 753.603,466.437 756.269,462.271 754.5,455.5C 751.398,459.384 747.398,461.717 742.5,462.5C 737.686,461.857 734.519,459.19 733,454.5C 732.448,451.581 733.115,448.914 735,446.5C 739.016,442.652 742.849,438.652 746.5,434.5C 745.717,432.712 744.384,431.712 742.5,431.5C 747.967,425.862 753.301,420.029 758.5,414C 760.417,414.027 762.084,414.861 763.5,416.5C 765.529,415.156 767.529,413.823 769.5,412.5C 772.389,419.905 777.056,426.072 783.5,431C 786.125,431.723 787.792,430.723 788.5,428C 785.048,423.545 781.214,419.378 777,415.5C 776.319,413.105 775.485,410.772 774.5,408.5C 773.06,409.952 771.394,410.952 769.5,411.5C 769.107,408.07 769.773,404.904 771.5,402C 771.272,401.601 770.938,401.435 770.5,401.5C 771.795,400.512 773.128,399.512 774.5,398.5C 777.846,400.848 778.179,403.514 775.5,406.5C 775.833,406.833 776.167,407.167 776.5,407.5C 778.887,405.311 781.553,403.644 784.5,402.5C 788.837,410.495 795.503,413.329 804.5,411C 813.994,406.213 816.827,399.046 813,389.5C 812,390.5 811,391.5 810,392.5C 810.014,402.495 805.181,406.661 795.5,405C 792.667,403.5 790.5,401.333 789,398.5C 787.385,399.386 785.885,400.386 784.5,401.5C 784.339,398.32 783.339,395.653 781.5,393.5C 792.201,385.476 803.201,377.81 814.5,370.5C 814.283,373.421 814.949,376.087 816.5,378.5C 815.426,379.885 814.093,381.051 812.5,382C 819.008,387.168 826.008,387.834 833.5,384C 839.684,378.299 841.017,371.799 837.5,364.5C 851.923,353.776 866.59,343.276 881.5,333C 882.711,332.107 882.711,331.274 881.5,330.5C 879.513,328.673 877.179,327.673 874.5,327.5C 881.478,322.008 888.812,317.008 896.5,312.5C 896.122,314.646 895.788,316.813 895.5,319C 895.608,320.681 896.275,321.848 897.5,322.5C 902.342,331.951 909.342,334.451 918.5,330C 931.442,321.617 936.942,309.784 935,294.5C 922.621,303.719 910.121,312.719 897.5,321.5C 897.248,318.68 897.748,316.014 899,313.5C 901.921,311.288 905.088,309.455 908.5,308C 910.874,305.961 912.874,303.628 914.5,301C 913.906,300.536 913.239,300.369 912.5,300.5C 919.286,295.267 926.286,290.267 933.5,285.5C 934.49,288.151 935.49,290.817 936.5,293.5C 948.639,285.194 960.639,276.694 972.5,268C 996.513,255.876 1018.01,259.376 1037,278.5C 1047.44,291.885 1050.44,306.885 1046,323.5C 1043.32,333.843 1037.82,342.343 1029.5,349C 896.726,442.616 764.393,536.783 632.5,631.5C 633.931,633.938 635.931,635.604 638.5,636.5C 637.71,637.401 636.71,638.068 635.5,638.5C 634.564,635.728 632.73,633.728 630,632.5C 620.937,638.951 611.771,645.284 602.5,651.5C 601.281,650.737 600.281,649.737 599.5,648.5C 598.719,649.737 597.719,650.737 596.5,651.5C 467.248,559.817 338.248,468.484 209.5,377.5C 213.646,380.078 217.646,382.911 221.5,386C 235.424,385.728 240.757,378.728 237.5,365C 235.613,364.837 234.113,365.671 233,367.5C 233.688,378.148 228.855,382.315 218.5,380C 215.898,379.065 214.398,377.232 214,374.5C 212.899,365.101 217.065,360.768 226.5,361.5C 224.371,366.15 221.205,370.15 217,373.5C 216.221,375.906 217.054,377.573 219.5,378.5C 224.819,373.682 229.985,368.682 235,363.5C 235.667,362.5 235.667,361.5 235,360.5C 227.82,354.531 220.32,354.031 212.5,359C 208.014,363.568 206.347,369.068 207.5,375.5C 194.989,366.497 182.323,357.664 169.5,349C 151.838,332.372 147.005,312.539 155,289.5C 171.457,261.6 194.624,254.1 224.5,267C 236.167,275.333 247.833,283.667 259.5,292C 261.217,293.559 263.217,294.392 265.5,294.5C 265.575,291.794 265.908,289.127 266.5,286.5 Z"/></g>
<g><path style="opacity:1" fill="#d7302b" d="M 277.5,294.5 C 281.736,296.445 285.403,299.112 288.5,302.5C 288.548,305.313 289.215,307.979 290.5,310.5C 290.043,311.298 289.376,311.631 288.5,311.5C 285.907,310.246 283.573,308.58 281.5,306.5C 279.181,303.361 277.515,299.861 276.5,296C 276.57,295.235 276.903,294.735 277.5,294.5 Z"/></g>
<g><path style="opacity:1" fill="#d96559" d="M 897.5,322.5 C 897.5,322.167 897.5,321.833 897.5,321.5C 910.121,312.719 922.621,303.719 935,294.5C 936.942,309.784 931.442,321.617 918.5,330C 909.342,334.451 902.342,331.951 897.5,322.5 Z"/></g>
<g><path style="opacity:1" fill="#d96559" d="M 281.5,306.5 C 283.573,308.58 285.907,310.246 288.5,311.5C 289.976,313.5 291.809,315.167 294,316.5C 294.676,325.187 299.176,331.021 307.5,334C 302.238,335.439 296.904,335.772 291.5,335C 271.862,329.036 263.029,315.87 265,295.5C 270.128,299.807 275.628,303.473 281.5,306.5 Z"/></g>
<g><path style="opacity:1" fill="#d7332d" d="M 912.5,300.5 C 913.239,300.369 913.906,300.536 914.5,301C 912.874,303.628 910.874,305.961 908.5,308C 905.088,309.455 901.921,311.288 899,313.5C 897.748,316.014 897.248,318.68 897.5,321.5C 897.5,321.833 897.5,322.167 897.5,322.5C 896.275,321.848 895.608,320.681 895.5,319C 895.788,316.813 896.122,314.646 896.5,312.5C 901.527,308.147 906.86,304.147 912.5,300.5 Z"/></g>
<g><path style="opacity:1" fill="#d96458" d="M 296.5,318.5 C 302.896,322.057 308.896,326.223 314.5,331C 313.226,332.221 311.726,333.054 310,333.5C 302.055,331.398 297.555,326.398 296.5,318.5 Z"/></g>
<g><path style="opacity:1" fill="#c02522" d="M 1057.5,315.5 C 1057.67,361.835 1057.5,408.168 1057,454.5C 1054.63,451.961 1052.13,449.628 1049.5,447.5C 1049.83,411.329 1049.5,375.329 1048.5,339.5C 1052.32,331.702 1055.32,323.702 1057.5,315.5 Z"/></g>
<g><path style="opacity:1" fill="#d96458" d="M 893.5,323.5 C 894.552,323.351 895.552,323.517 896.5,324C 899.282,328.781 903.282,332.114 908.5,334C 900.627,336.316 892.96,335.816 885.5,332.5C 884.479,331.998 884.312,331.332 885,330.5C 888.023,328.302 890.856,325.969 893.5,323.5 Z"/></g>
<g><path style="opacity:1" fill="#d62d28" d="M 874.5,327.5 C 877.179,327.673 879.513,328.673 881.5,330.5C 882.711,331.274 882.711,332.107 881.5,333C 866.59,343.276 851.923,353.776 837.5,364.5C 837.167,364.5 836.833,364.5 836.5,364.5C 836.77,361.667 835.77,359 833.5,356.5C 846.991,346.588 860.658,336.921 874.5,327.5 Z"/></g>
<g><path style="opacity:1" fill="#d44a3c" d="M 198.5,380.5 C 191.439,380.701 186.272,384.034 183,390.5C 181.572,405.739 188.406,412.573 203.5,411C 208.387,408.947 211.721,405.447 213.5,400.5C 225.167,411.833 236.833,423.167 248.5,434.5C 248.5,602.5 248.5,770.5 248.5,938.5C 230.497,938.667 212.497,938.5 194.5,938C 171.534,933.033 157.034,919.2 151,896.5C 149.843,753.195 149.009,609.861 148.5,466.5C 146.057,468.055 143.39,468.722 140.5,468.5C 140.5,466.5 140.5,464.5 140.5,462.5C 143.675,462.497 146.508,461.497 149,459.5C 149.499,455.514 149.666,451.514 149.5,447.5C 156.659,451.907 158.326,457.907 154.5,465.5C 155.355,469.524 157.188,470.191 160,467.5C 163.333,461.5 163.333,455.5 160,449.5C 156.667,446.167 153.333,442.833 150,439.5C 149.503,441.81 149.337,444.143 149.5,446.5C 146.985,444.818 144.985,442.652 143.5,440C 144.653,436.323 146.486,435.823 149,438.5C 149.667,436.167 149.667,433.833 149,431.5C 146.518,432.269 144.685,431.269 143.5,428.5C 145.519,426.81 147.519,425.144 149.5,423.5C 149.337,425.857 149.503,428.19 150,430.5C 154.349,426.318 158.515,421.985 162.5,417.5C 161.5,415.833 160.167,414.5 158.5,413.5C 155.839,416.827 152.839,419.827 149.5,422.5C 149.333,394.831 149.5,367.165 150,339.5C 154.089,345.593 158.922,351.093 164.5,356C 176.077,363.943 187.41,372.11 198.5,380.5 Z"/></g>
<g><path style="opacity:1" fill="#d62e29" d="M 322.5,326.5 C 414.815,391.808 507.149,457.142 599.5,522.5C 656.354,481.911 713.354,441.578 770.5,401.5C 770.938,401.435 771.272,401.601 771.5,402C 769.773,404.904 769.107,408.07 769.5,411.5C 769.5,411.833 769.5,412.167 769.5,412.5C 767.529,413.823 765.529,415.156 763.5,416.5C 762.084,414.861 760.417,414.027 758.5,414C 753.301,420.029 747.967,425.862 742.5,431.5C 739.94,433.273 737.607,435.273 735.5,437.5C 734.078,437.709 732.745,438.209 731.5,439C 687.676,470.412 643.676,501.579 599.5,532.5C 529.991,483.579 460.658,434.412 391.5,385C 387.929,382.579 384.262,380.413 380.5,378.5C 377.48,375.484 374.146,372.817 370.5,370.5C 353.035,357.892 335.368,345.392 317.5,333C 316.549,332.282 316.383,331.449 317,330.5C 318.774,329.035 320.608,327.702 322.5,326.5 Z"/></g>
<g><path style="opacity:1" fill="#d96458" d="M 209.5,377.5 C 208.5,377.167 207.833,376.5 207.5,375.5C 206.347,369.068 208.014,363.568 212.5,359C 220.32,354.031 227.82,354.531 235,360.5C 235.667,361.5 235.667,362.5 235,363.5C 229.985,368.682 224.819,373.682 219.5,378.5C 217.054,377.573 216.221,375.906 217,373.5C 221.205,370.15 224.371,366.15 226.5,361.5C 217.065,360.768 212.899,365.101 214,374.5C 214.398,377.232 215.898,379.065 218.5,380C 228.855,382.315 233.688,378.148 233,367.5C 234.113,365.671 235.613,364.837 237.5,365C 240.757,378.728 235.424,385.728 221.5,386C 217.646,382.911 213.646,380.078 209.5,377.5 Z"/></g>
<g><path style="opacity:1" fill="#d94b44" d="M 833.5,356.5 C 835.77,359 836.77,361.667 836.5,364.5C 834.015,367.261 832.848,370.594 833,374.5C 831.738,378.972 828.738,380.972 824,380.5C 822.5,380.333 821,380.167 819.5,380C 818.944,379.617 818.611,379.117 818.5,378.5C 817.782,376.863 817.616,375.197 818,373.5C 821,370.5 824,367.5 827,364.5C 827.528,363.184 827.028,362.517 825.5,362.5C 827.86,360.147 830.527,358.147 833.5,356.5 Z"/></g>
<g><path style="opacity:1" fill="#d96458" d="M 836.5,364.5 C 836.833,364.5 837.167,364.5 837.5,364.5C 841.017,371.799 839.684,378.299 833.5,384C 826.008,387.834 819.008,387.168 812.5,382C 814.093,381.051 815.426,379.885 816.5,378.5C 817.167,378.5 817.833,378.5 818.5,378.5C 818.611,379.117 818.944,379.617 819.5,380C 821,380.167 822.5,380.333 824,380.5C 828.738,380.972 831.738,378.972 833,374.5C 832.848,370.594 834.015,367.261 836.5,364.5 Z"/></g>
<g><path style="opacity:1" fill="#d7312c" d="M 825.5,362.5 C 827.028,362.517 827.528,363.184 827,364.5C 824,367.5 821,370.5 818,373.5C 817.616,375.197 817.782,376.863 818.5,378.5C 817.833,378.5 817.167,378.5 816.5,378.5C 814.949,376.087 814.283,373.421 814.5,370.5C 817.952,367.601 821.618,364.934 825.5,362.5 Z"/></g>
<g><path style="opacity:1" fill="#d66357" d="M 198.5,380.5 C 198.833,380.5 199.167,380.5 199.5,380.5C 203.103,382.763 206.436,385.43 209.5,388.5C 205.349,393.152 201.015,397.652 196.5,402C 192.889,403.254 191.389,402.088 192,398.5C 196.205,395.15 199.371,391.15 201.5,386.5C 192.014,385.818 187.847,390.152 189,399.5C 192.748,405.542 197.915,407.042 204.5,404C 207.186,399.251 209.52,394.418 211.5,389.5C 212.5,390.167 213.5,390.833 214.5,391.5C 214.736,394.609 214.403,397.609 213.5,400.5C 211.721,405.447 208.387,408.947 203.5,411C 188.406,412.573 181.572,405.739 183,390.5C 186.272,384.034 191.439,380.701 198.5,380.5 Z"/></g>
<g><path style="opacity:1" fill="#d62d28" d="M 993.5,251.5 C 1026.79,251.401 1047.96,267.401 1057,299.5C 1058.09,304.78 1058.59,310.113 1058.5,315.5C 1058.17,315.5 1057.83,315.5 1057.5,315.5C 1055.32,323.702 1052.32,331.702 1048.5,339.5C 1044.79,345.714 1040.13,351.214 1034.5,356C 1006.3,375.597 978.295,395.431 950.5,415.5C 947.527,417.147 944.86,419.147 942.5,421.5C 941.508,421.328 940.842,421.662 940.5,422.5C 839.833,493.833 739.167,565.167 638.5,636.5C 635.931,635.604 633.931,633.938 632.5,631.5C 764.393,536.783 896.726,442.616 1029.5,349C 1037.82,342.343 1043.32,333.843 1046,323.5C 1050.44,306.885 1047.44,291.885 1037,278.5C 1018.01,259.376 996.513,255.876 972.5,268C 960.639,276.694 948.639,285.194 936.5,293.5C 935.49,290.817 934.49,288.151 933.5,285.5C 945.295,276.764 957.295,268.264 969.5,260C 977.163,255.837 985.163,253.004 993.5,251.5 Z"/></g>
<g><path style="opacity:1" fill="#d96458" d="M 797.5,393.5 C 799.5,391.5 801.5,389.5 803.5,387.5C 805.436,386.741 807.269,385.741 809,384.5C 811.188,385.059 811.854,386.393 811,388.5C 806.5,393 802,397.5 797.5,402C 795.075,402.986 793.409,402.319 792.5,400C 793.985,397.683 795.652,395.516 797.5,393.5 Z"/></g>
<g><path style="opacity:1" fill="#d62d28" d="M 803.5,387.5 C 801.5,389.5 799.5,391.5 797.5,393.5C 794.733,394.051 792.4,395.384 790.5,397.5C 789.359,395.579 789.192,393.579 790,391.5C 793.546,386.618 798.046,385.285 803.5,387.5 Z"/></g>
<g><path style="opacity:1" fill="#d96458" d="M 784.5,402.5 C 784.5,402.167 784.5,401.833 784.5,401.5C 785.885,400.386 787.385,399.386 789,398.5C 790.5,401.333 792.667,403.5 795.5,405C 805.181,406.661 810.014,402.495 810,392.5C 811,391.5 812,390.5 813,389.5C 816.827,399.046 813.994,406.213 804.5,411C 795.503,413.329 788.837,410.495 784.5,402.5 Z"/></g>
<g><path style="opacity:1" fill="#be4337" d="M 1048.5,339.5 C 1049.5,375.329 1049.83,411.329 1049.5,447.5C 1048.34,540.097 1048.17,632.763 1049,725.5C 1049.72,724.956 1050.22,724.289 1050.5,723.5C 1052.5,719.5 1054.5,719.5 1056.5,723.5C 1054.2,727.761 1054.03,732.094 1056,736.5C 1056.71,737.381 1057.54,738.047 1058.5,738.5C 1058.5,741.5 1058.5,744.5 1058.5,747.5C 1058.17,747.5 1057.83,747.5 1057.5,747.5C 1054.83,744.665 1052.33,741.665 1050,738.5C 1049.5,744.491 1049.33,750.491 1049.5,756.5C 1046.73,753.229 1043.73,750.062 1040.5,747C 1037.91,746.551 1035.91,747.551 1034.5,750C 1039.33,754.833 1044.17,759.667 1049,764.5C 1049.5,762.19 1049.66,759.857 1049.5,757.5C 1051.48,759.144 1053.48,760.81 1055.5,762.5C 1054.32,765.269 1052.48,766.269 1050,765.5C 1049.67,807.167 1049.33,848.833 1049,890.5C 1045.36,915.134 1031.53,930.634 1007.5,937C 988.547,938.435 969.547,938.935 950.5,938.5C 950.5,901.167 950.5,863.833 950.5,826.5C 958.829,834.661 967.329,842.661 976,850.5C 976.667,847.833 976.667,845.167 976,842.5C 970.866,836.365 965.366,830.531 959.5,825C 956.518,824.502 953.518,824.335 950.5,824.5C 950.5,688.167 950.5,551.833 950.5,415.5C 978.295,395.431 1006.3,375.597 1034.5,356C 1040.13,351.214 1044.79,345.714 1048.5,339.5 Z"/></g>
<g><path style="opacity:1" fill="#be4236" d="M 214.5,391.5 C 225.726,399.368 236.892,407.368 248,415.5C 248.5,421.825 248.666,428.158 248.5,434.5C 236.833,423.167 225.167,411.833 213.5,400.5C 214.403,397.609 214.736,394.609 214.5,391.5 Z"/></g>
<g><path style="opacity:1" fill="#d34c3f" d="M 199.5,380.5 C 205.749,380.614 209.749,383.614 211.5,389.5C 209.52,394.418 207.186,399.251 204.5,404C 197.915,407.042 192.748,405.542 189,399.5C 187.847,390.152 192.014,385.818 201.5,386.5C 199.371,391.15 196.205,395.15 192,398.5C 191.389,402.088 192.889,403.254 196.5,402C 201.015,397.652 205.349,393.152 209.5,388.5C 206.436,385.43 203.103,382.763 199.5,380.5 Z"/></g>
<g><path style="opacity:1" fill="#d62f2a" d="M 781.5,393.5 C 783.339,395.653 784.339,398.32 784.5,401.5C 784.5,401.833 784.5,402.167 784.5,402.5C 781.553,403.644 778.887,405.311 776.5,407.5C 776.167,407.167 775.833,406.833 775.5,406.5C 778.179,403.514 777.846,400.848 774.5,398.5C 776.619,396.6 778.953,394.934 781.5,393.5 Z"/></g>
<g><path style="opacity:1" fill="#d96458" d="M 172.5,399.5 C 174.595,399.76 175.928,400.926 176.5,403C 174.013,407.004 173.847,411.171 176,415.5C 179.667,419.167 183.333,422.833 187,426.5C 187.5,430 186,431.5 182.5,431C 177.585,426.756 173.419,421.923 170,416.5C 167.381,410.205 168.214,404.539 172.5,399.5 Z"/></g>
<g><path style="opacity:1" fill="#d96458" d="M 769.5,412.5 C 769.5,412.167 769.5,411.833 769.5,411.5C 771.394,410.952 773.06,409.952 774.5,408.5C 775.485,410.772 776.319,413.105 777,415.5C 781.214,419.378 785.048,423.545 788.5,428C 787.792,430.723 786.125,431.723 783.5,431C 777.056,426.072 772.389,419.905 769.5,412.5 Z"/></g>
<g><path style="opacity:1" fill="#d96458" d="M 149.5,423.5 C 149.5,423.167 149.5,422.833 149.5,422.5C 152.839,419.827 155.839,416.827 158.5,413.5C 160.167,414.5 161.5,415.833 162.5,417.5C 158.515,421.985 154.349,426.318 150,430.5C 149.503,428.19 149.337,425.857 149.5,423.5 Z"/></g>
<g><path style="opacity:1" fill="#c02622" d="M 950.5,415.5 C 950.5,551.833 950.5,688.167 950.5,824.5C 950.5,825.167 950.5,825.833 950.5,826.5C 950.5,863.833 950.5,901.167 950.5,938.5C 969.547,938.935 988.547,938.435 1007.5,937C 1031.53,930.634 1045.36,915.134 1049,890.5C 1049.33,848.833 1049.67,807.167 1050,765.5C 1052.48,766.269 1054.32,765.269 1055.5,762.5C 1053.48,760.81 1051.48,759.144 1049.5,757.5C 1049.5,757.167 1049.5,756.833 1049.5,756.5C 1049.33,750.491 1049.5,744.491 1050,738.5C 1052.33,741.665 1054.83,744.665 1057.5,747.5C 1057.67,794.168 1057.5,840.835 1057,887.5C 1056.45,895.692 1054.95,903.692 1052.5,911.5C 1043.46,931.22 1028.12,943.053 1006.5,947C 988.503,947.5 970.503,947.667 952.5,947.5C 950.167,947.5 947.833,947.5 945.5,947.5C 944.5,947.5 943.5,947.5 942.5,947.5C 942.5,772.167 942.5,596.833 942.5,421.5C 944.86,419.147 947.527,417.147 950.5,415.5 Z"/></g>
<g><path style="opacity:1" fill="#ce6d6c" d="M 940.5,422.5 C 940.842,421.662 941.508,421.328 942.5,421.5C 942.5,596.833 942.5,772.167 942.5,947.5C 942.167,947.5 941.833,947.5 941.5,947.5C 941.833,772.333 941.5,597.333 940.5,422.5 Z"/></g>
<g><path style="opacity:1" fill="#d6d5d7" d="M 258.5,422.5 C 370.804,502.324 483.137,582.157 595.5,662C 597.345,663.128 599.345,663.628 601.5,663.5C 579.797,680.353 558.463,697.853 537.5,716C 535.473,717.879 533.14,719.046 530.5,719.5C 439.28,628.069 348.28,536.403 257.5,444.5C 257.175,436.981 257.508,429.648 258.5,422.5 Z"/></g>
<g><path style="opacity:0.999" fill="#e4e4e6" d="M 940.5,422.5 C 941.5,597.333 941.833,772.333 941.5,947.5C 879.5,947.5 817.5,947.5 755.5,947.5C 755.631,946.761 755.464,946.094 755,945.5C 680.993,870.66 606.826,795.993 532.5,721.5C 531.833,720.833 531.167,720.167 530.5,719.5C 533.14,719.046 535.473,717.879 537.5,716C 558.463,697.853 579.797,680.353 601.5,663.5C 612.833,655.167 624.167,646.833 635.5,638.5C 636.71,638.068 637.71,637.401 638.5,636.5C 739.167,565.167 839.833,493.833 940.5,422.5 Z"/></g>
<g><path style="opacity:1" fill="#d96457" d="M 157.5,424.5 C 163.409,428.902 168.909,433.902 174,439.5C 174.5,443 173,444.5 169.5,444C 164.667,439.167 159.833,434.333 155,429.5C 155.058,427.565 155.891,425.898 157.5,424.5 Z"/></g>
<g><path style="opacity:1" fill="#d96457" d="M 758.5,424.5 C 764.409,428.902 769.909,433.902 775,439.5C 775.5,443 774,444.5 770.5,444C 765.667,439.167 760.833,434.333 756,429.5C 756.058,427.565 756.891,425.898 758.5,424.5 Z"/></g>
<g><path style="opacity:0.123" fill="#fefffe" d="M 140.5,431.5 C 140.5,434.833 140.5,438.167 140.5,441.5C 136.264,444.063 133.598,447.73 132.5,452.5C 133.094,457.362 135.761,460.362 140.5,461.5C 140.5,461.833 140.5,462.167 140.5,462.5C 140.5,464.5 140.5,466.5 140.5,468.5C 130.747,467.745 125.747,462.411 125.5,452.5C 125.295,449.205 126.128,446.205 128,443.5C 132.036,439.296 136.202,435.296 140.5,431.5 Z"/></g>
<g><path style="opacity:1" fill="#d96458" d="M 742.5,431.5 C 744.384,431.712 745.717,432.712 746.5,434.5C 742.849,438.652 739.016,442.652 735,446.5C 733.115,448.914 732.448,451.581 733,454.5C 734.519,459.19 737.686,461.857 742.5,462.5C 747.398,461.717 751.398,459.384 754.5,455.5C 756.269,462.271 753.603,466.437 746.5,468C 731.316,468.195 725.149,460.695 728,445.5C 730.705,442.964 733.205,440.297 735.5,437.5C 737.607,435.273 739.94,433.273 742.5,431.5 Z"/></g>
<g><path style="opacity:1" fill="#d62b26" d="M 256.5,442.5 C 256.5,610.833 256.5,779.167 256.5,947.5C 233.456,947.947 210.456,947.447 187.5,946C 161.429,937.925 145.929,920.425 141,893.5C 140.5,844.501 140.333,795.501 140.5,746.5C 140.5,742.833 140.5,739.167 140.5,735.5C 140.5,646.5 140.5,557.5 140.5,468.5C 143.39,468.722 146.057,468.055 148.5,466.5C 149.009,609.861 149.843,753.195 151,896.5C 157.034,919.2 171.534,933.033 194.5,938C 212.497,938.5 230.497,938.667 248.5,938.5C 249.167,771.666 249.833,604.666 250.5,437.5C 252.519,439.19 254.519,440.856 256.5,442.5 Z"/></g>
<g><path style="opacity:1" fill="#d96458" d="M 746.5,436.5 C 753.146,440.98 758.646,446.647 763,453.5C 763.667,456.833 763.667,460.167 763,463.5C 762.218,466.076 760.718,468.076 758.5,469.5C 756.728,468.73 755.728,467.397 755.5,465.5C 757.261,462.004 757.761,458.337 757,454.5C 753.368,449.866 749.368,445.533 745,441.5C 744.387,439.505 744.887,437.838 746.5,436.5 Z"/></g>
<g><path style="opacity:1" fill="#d96458" d="M 149.5,447.5 C 149.5,447.167 149.5,446.833 149.5,446.5C 149.337,444.143 149.503,441.81 150,439.5C 153.333,442.833 156.667,446.167 160,449.5C 163.333,455.5 163.333,461.5 160,467.5C 157.188,470.191 155.355,469.524 154.5,465.5C 158.326,457.907 156.659,451.907 149.5,447.5 Z"/></g>
<g><path style="opacity:1" fill="#df7572" d="M 258.5,422.5 C 257.508,429.648 257.175,436.981 257.5,444.5C 257.5,611.833 257.5,779.167 257.5,946.5C 257.5,946.833 257.5,947.167 257.5,947.5C 257.167,947.5 256.833,947.5 256.5,947.5C 256.5,779.167 256.5,610.833 256.5,442.5C 256.17,435.468 256.503,428.468 257.5,421.5C 258.107,421.624 258.44,421.957 258.5,422.5 Z"/></g>
<g><path style="opacity:1" fill="#efefef" d="M 257.5,444.5 C 348.28,536.403 439.28,628.069 530.5,719.5C 531.167,720.167 531.833,720.833 532.5,721.5C 531.448,721.351 530.448,721.517 529.5,722C 438.668,796.668 348.002,871.501 257.5,946.5C 257.5,779.167 257.5,611.833 257.5,444.5 Z"/></g>
<g><path style="opacity:0.022" fill="#fefffe" d="M 1058.5,451.5 C 1092.8,485.299 1126.97,519.299 1161,553.5C 1167.79,563.412 1175.29,572.745 1183.5,581.5C 1178.09,577.6 1173.09,573.1 1168.5,568C 1164.83,565.667 1161.17,563.333 1157.5,561C 1124.83,529.667 1092.83,497.667 1061.5,465C 1060.47,464.487 1059.47,463.987 1058.5,463.5C 1058.5,459.5 1058.5,455.5 1058.5,451.5 Z"/></g>
<g><path style="opacity:0.118" fill="#fefefe" d="M 114.5,460.5 C 116.877,460.784 119.044,460.784 121,460.5C 128.225,464.555 134.392,469.888 139.5,476.5C 138.185,478.316 136.685,479.983 135,481.5C 130.199,477.701 125.699,473.534 121.5,469C 114.083,466.887 109.416,469.72 107.5,477.5C 108.098,478.795 108.598,480.128 109,481.5C 113.547,485.711 117.714,490.211 121.5,495C 120.667,497.167 119.167,498.667 117,499.5C 112.378,495.881 108.045,491.881 104,487.5C 97.5981,474.528 101.098,465.528 114.5,460.5 Z"/></g>
<g><path style="opacity:1" fill="#d96458" d="M 712.5,461.5 C 718.275,460.775 723.608,461.941 728.5,465C 732.349,468.682 736.016,472.515 739.5,476.5C 738.5,478.167 737.167,479.5 735.5,480.5C 730.982,476.148 726.316,471.981 721.5,468C 712,466.833 707.833,471 709,480.5C 713.19,485.354 717.357,490.187 721.5,495C 720.73,496.775 719.563,498.275 718,499.5C 712.256,494.427 707.256,488.76 703,482.5C 702.209,478.074 702.543,473.741 704,469.5C 706.729,466.601 709.562,463.934 712.5,461.5 Z"/></g>
<g><path style="opacity:0.22" fill="#c2332f" d="M 1057.5,315.5 C 1057.83,315.5 1058.17,315.5 1058.5,315.5C 1058.5,360.833 1058.5,406.167 1058.5,451.5C 1058.5,455.5 1058.5,459.5 1058.5,463.5C 1058.5,555.167 1058.5,646.833 1058.5,738.5C 1057.54,738.047 1056.71,737.381 1056,736.5C 1054.03,732.094 1054.2,727.761 1056.5,723.5C 1057.67,634.668 1057.83,545.668 1057,456.5C 1054.67,454.167 1052.33,451.833 1050,449.5C 1049.17,541.001 1049.33,632.334 1050.5,723.5C 1050.22,724.289 1049.72,724.956 1049,725.5C 1048.17,632.763 1048.34,540.097 1049.5,447.5C 1052.13,449.628 1054.63,451.961 1057,454.5C 1057.5,408.168 1057.67,361.835 1057.5,315.5 Z"/></g>
<g><path style="opacity:1" fill="#c02522" d="M 1056.5,723.5 C 1054.5,719.5 1052.5,719.5 1050.5,723.5C 1049.33,632.334 1049.17,541.001 1050,449.5C 1052.33,451.833 1054.67,454.167 1057,456.5C 1057.83,545.668 1057.67,634.668 1056.5,723.5 Z"/></g>
<g><path style="opacity:1" fill="#d7584b" d="M 370.5,370.5 C 374.146,372.817 377.48,375.484 380.5,378.5C 442.214,441.047 504.38,503.047 567,564.5C 567.667,565.167 567.667,565.833 567,566.5C 500.972,501.638 435.472,436.305 370.5,370.5 Z"/></g>
<g><path style="opacity:0.119" fill="#fefffe" d="M 87.5,485.5 C 98.8091,483.998 105.976,488.665 109,499.5C 109.458,503.342 108.791,507.009 107,510.5C 103.5,514 100,517.5 96.5,521C 97.7874,524.125 97.7874,527.291 96.5,530.5C 87.1667,521.833 78.1667,512.833 69.5,503.5C 74.5731,496.427 80.5731,490.427 87.5,485.5 Z M 89.5,492.5 C 99.8701,492.702 103.37,497.702 100,507.5C 97.3333,510.167 94.6667,512.833 92,515.5C 87.6513,511.318 83.4846,506.985 79.5,502.5C 82.5481,498.785 85.8815,495.452 89.5,492.5 Z"/></g>
<g><path style="opacity:1" fill="#d96458" d="M 687.5,486.5 C 704.32,484.814 711.153,492.147 708,508.5C 705.036,512.466 701.703,516.133 698,519.5C 696.647,518.315 695.48,516.981 694.5,515.5C 696.483,513.016 698.65,510.683 701,508.5C 705.653,497.145 701.82,491.978 689.5,493C 686.203,495.295 683.203,497.962 680.5,501C 677.833,501.667 675.167,501.667 672.5,501C 677.395,495.936 682.395,491.103 687.5,486.5 Z"/></g>
<g><path style="opacity:1" fill="#d96458" d="M 671.5,504.5 C 674.304,503.362 677.304,503.195 680.5,504C 686,509.5 691.5,515 697,520.5C 697.667,523.5 697.667,526.5 697,529.5C 688.632,520.964 680.132,512.631 671.5,504.5 Z"/></g>
<g><path style="opacity:0.004" fill="#fefffe" d="M 1183.5,581.5 C 1184.17,581.5 1184.5,581.833 1184.5,582.5C 1184.17,582.167 1183.83,581.833 1183.5,581.5 Z"/></g>
<g><path style="opacity:0.004" fill="#fefffe" d="M 1184.5,582.5 C 1185.17,582.5 1185.5,582.833 1185.5,583.5C 1185.17,583.167 1184.83,582.833 1184.5,582.5 Z"/></g>
<g><path style="opacity:0.004" fill="#fefffe" d="M 1185.5,583.5 C 1186.83,584.167 1186.83,584.167 1185.5,583.5 Z"/></g>
<g><path style="opacity:0.022" fill="#fefffe" d="M 140.5,735.5 C 140.5,739.167 140.5,742.833 140.5,746.5C 138.66,744.832 136.66,743.332 134.5,742C 98,705.5 61.5,669 25,632.5C 21.5184,629.023 18.8518,625.023 17,620.5C 13.1311,616.966 9.63108,613.133 6.5,609C 9.94523,610.407 12.9452,612.741 15.5,616C 20.0076,618.753 24.3409,621.753 28.5,625C 66.0069,661.674 103.34,698.507 140.5,735.5 Z"/></g>
<g><path style="opacity:0.119" fill="#fefffe" d="M 1101.5,675.5 C 1114.36,676.888 1120.19,684.221 1119,697.5C 1116.06,704.643 1110.72,708.643 1103,709.5C 1087.95,705.676 1083.61,696.676 1090,682.5C 1093.23,678.979 1097.06,676.646 1101.5,675.5 Z M 1099.5,683.5 C 1101.86,683.337 1104.19,683.503 1106.5,684C 1102.3,687.867 1098.47,692.033 1095,696.5C 1094.6,695.128 1094.1,693.795 1093.5,692.5C 1094.74,688.935 1096.74,685.935 1099.5,683.5 Z M 1111.5,689.5 C 1112.8,698.361 1108.8,702.194 1099.5,701C 1104,697.664 1108,693.831 1111.5,689.5 Z"/></g>
<g><path style="opacity:0.118" fill="#fefefe" d="M 1076.5,700.5 C 1087.85,701.016 1094.18,706.849 1095.5,718C 1094.3,722.392 1092.3,726.392 1089.5,730C 1080.77,735.955 1072.6,735.122 1065,727.5C 1058.83,714.486 1062.66,705.486 1076.5,700.5 Z M 1074.5,708.5 C 1076.86,708.337 1079.19,708.503 1081.5,709C 1077.3,712.867 1073.47,717.033 1070,721.5C 1068.38,715.968 1069.88,711.634 1074.5,708.5 Z M 1086.5,714.5 C 1088.13,722.384 1084.79,726.218 1076.5,726C 1076.17,725.667 1075.83,725.333 1075.5,725C 1079.67,721.998 1083.33,718.498 1086.5,714.5 Z"/></g>
<g><path style="opacity:0.952" fill="#fefefe" d="M 532.5,721.5 C 606.826,795.993 680.993,870.66 755,945.5C 755.464,946.094 755.631,946.761 755.5,947.5C 620.833,947.333 486.166,947.5 351.5,948C 421.611,1016.11 491.111,1084.94 560,1154.5C 566.788,1164.41 574.288,1173.75 582.5,1182.5C 577.092,1178.6 572.092,1174.1 567.5,1169C 563.833,1166.67 560.167,1164.33 556.5,1162C 488.307,1094.81 420.473,1027.31 353,959.5C 349.781,955.948 346.948,952.115 344.5,948C 315.502,947.5 286.502,947.333 257.5,947.5C 257.5,947.167 257.5,946.833 257.5,946.5C 348.002,871.501 438.668,796.668 529.5,722C 530.448,721.517 531.448,721.351 532.5,721.5 Z"/></g>
<g><path style="opacity:1" fill="#c75e53" d="M 1037.5,735.5 C 1040.52,735.364 1042.02,736.698 1042,739.5C 1037.5,744 1033,748.5 1028.5,753C 1026.43,752.983 1024.77,751.983 1023.5,750C 1028.37,745.298 1033.04,740.465 1037.5,735.5 Z"/></g>
<g><path style="opacity:0.111" fill="#fefffe" d="M 1058.5,738.5 C 1062.55,741.55 1065.89,745.217 1068.5,749.5C 1067.21,751.29 1065.71,752.957 1064,754.5C 1062.3,752.627 1060.46,750.96 1058.5,749.5C 1058.5,748.833 1058.5,748.167 1058.5,747.5C 1058.5,744.5 1058.5,741.5 1058.5,738.5 Z"/></g>
<g><path style="opacity:1" fill="#c75c52" d="M 1049.5,756.5 C 1049.5,756.833 1049.5,757.167 1049.5,757.5C 1049.66,759.857 1049.5,762.19 1049,764.5C 1044.17,759.667 1039.33,754.833 1034.5,750C 1035.91,747.551 1037.91,746.551 1040.5,747C 1043.73,750.062 1046.73,753.229 1049.5,756.5 Z"/></g>
<g><path style="opacity:0.22" fill="#c63835" d="M 1057.5,747.5 C 1057.83,747.5 1058.17,747.5 1058.5,747.5C 1058.5,748.167 1058.5,748.833 1058.5,749.5C 1058.67,797.834 1058.5,846.168 1058,894.5C 1057.23,900.626 1055.39,906.292 1052.5,911.5C 1054.95,903.692 1056.45,895.692 1057,887.5C 1057.5,840.835 1057.67,794.168 1057.5,747.5 Z"/></g>
<g><path style="opacity:1" fill="#c75d53" d="M 1021.5,751.5 C 1023.15,752.479 1024.48,753.812 1025.5,755.5C 1021.15,760.018 1016.98,764.684 1013,769.5C 1011.77,780.949 1016.61,785.116 1027.5,782C 1034.28,774.637 1035.95,775.971 1032.5,786C 1023.93,791.327 1016.1,790.493 1009,783.5C 1005.73,777.139 1005.73,770.806 1009,764.5C 1013.37,760.298 1017.54,755.964 1021.5,751.5 Z"/></g>
<g><path style="opacity:1" fill="#c75d53" d="M 1026.5,757.5 C 1032.54,762.372 1037.71,768.039 1042,774.5C 1043.58,780.978 1042.24,786.644 1038,791.5C 1034.43,789.481 1033.77,786.815 1036,783.5C 1036.67,780.833 1036.67,778.167 1036,775.5C 1032.02,770.684 1027.85,766.018 1023.5,761.5C 1024.52,760.148 1025.52,758.815 1026.5,757.5 Z"/></g>
<g><path style="opacity:1" fill="#c75d53" d="M 993.5,782.5 C 997.792,782.035 1001.79,782.868 1005.5,785C 1010.51,788.679 1014.85,793.012 1018.5,798C 1017.73,799.775 1016.56,801.275 1015,802.5C 1011.17,798.667 1007.33,794.833 1003.5,791C 997.253,787.05 992.087,788.217 988,794.5C 987.262,798.402 987.928,802.068 990,805.5C 993.682,809.349 997.515,813.016 1001.5,816.5C 1000.5,818.167 999.167,819.5 997.5,820.5C 991.439,815.608 986.272,809.941 982,803.5C 980.121,793.25 983.955,786.25 993.5,782.5 Z"/></g>
<g><path style="opacity:1" fill="#c75d53" d="M 967.5,807.5 C 983.861,806.911 990.361,814.578 987,830.5C 984.353,834.314 981.187,837.647 977.5,840.5C 975.833,839.5 974.5,838.167 973.5,836.5C 975.817,833.683 978.317,831.016 981,828.5C 984.081,817.575 979.914,812.741 968.5,814C 965.833,816.667 963.167,819.333 960.5,822C 957.577,823.632 954.577,823.799 951.5,822.5C 956.251,816.745 961.584,811.745 967.5,807.5 Z"/></g>
<g><path style="opacity:1" fill="#d7594d" d="M 150.5,751.5 C 177.604,776.77 203.937,802.937 229.5,830C 228.833,830.667 228.167,830.667 227.5,830C 201.248,804.249 175.581,778.082 150.5,751.5 Z"/></g>
<g><path style="opacity:1" fill="#c75c52" d="M 950.5,824.5 C 953.518,824.335 956.518,824.502 959.5,825C 965.366,830.531 970.866,836.365 976,842.5C 976.667,845.167 976.667,847.833 976,850.5C 967.329,842.661 958.829,834.661 950.5,826.5C 950.5,825.833 950.5,825.167 950.5,824.5 Z"/></g>
<g><path style="opacity:0.022" fill="#fefffe" d="M 945.5,947.5 C 947.833,947.5 950.167,947.5 952.5,947.5C 1022.41,1015.91 1091.91,1084.91 1161,1154.5C 1167.79,1164.41 1175.29,1173.75 1183.5,1182.5C 1178.09,1178.6 1173.09,1174.1 1168.5,1169C 1164.83,1166.67 1161.17,1164.33 1157.5,1162C 1089.31,1094.81 1021.47,1027.31 954,959.5C 950.559,955.898 947.725,951.898 945.5,947.5 Z"/></g>
<g><path style="opacity:0.12" fill="#fefffe" d="M 219.5,955.5 C 233.364,955.196 239.864,961.862 239,975.5C 235.145,987.132 227.312,990.965 215.5,987C 203.892,977.776 203.558,968.109 214.5,958C 216.315,957.243 217.981,956.41 219.5,955.5 Z M 222.5,962.5 C 223.922,962.709 225.255,963.209 226.5,964C 222.298,967.867 218.465,972.033 215,976.5C 213.034,969.432 215.534,964.765 222.5,962.5 Z M 231.5,968.5 C 233.097,978.729 228.764,982.562 218.5,980C 223.598,977.071 227.931,973.238 231.5,968.5 Z"/></g>
<g><path style="opacity:0.12" fill="#fefffe" d="M 820.5,955.5 C 834.364,955.196 840.864,961.862 840,975.5C 836.145,987.132 828.312,990.965 816.5,987C 804.892,977.776 804.558,968.109 815.5,958C 817.315,957.243 818.981,956.41 820.5,955.5 Z M 823.5,962.5 C 824.922,962.709 826.255,963.209 827.5,964C 823.298,967.867 819.465,972.033 816,976.5C 814.034,969.432 816.534,964.765 823.5,962.5 Z M 832.5,968.5 C 834.097,978.729 829.764,982.562 819.5,980C 824.598,977.071 828.931,973.238 832.5,968.5 Z"/></g>
<g><path style="opacity:0.12" fill="#fefefe" d="M 193.5,980.5 C 208.792,979.958 215.625,987.292 214,1002.5C 209.156,1011.89 201.656,1015.06 191.5,1012C 182.826,1007.13 179.992,999.965 183,990.5C 185.738,986.26 189.238,982.926 193.5,980.5 Z M 195.5,987.5 C 197.924,987.635 199.924,987.968 201.5,988.5C 197.849,992.652 194.016,996.652 190,1000.5C 188.571,994.7 190.404,990.367 195.5,987.5 Z M 206.5,993.5 C 208.296,1003.2 204.296,1007.04 194.5,1005C 199.002,1001.66 203.002,997.831 206.5,993.5 Z"/></g>
<g><path style="opacity:0.12" fill="#fefefe" d="M 794.5,980.5 C 809.792,979.958 816.625,987.292 815,1002.5C 810.156,1011.89 802.656,1015.06 792.5,1012C 783.826,1007.13 780.992,999.965 784,990.5C 786.738,986.26 790.238,982.926 794.5,980.5 Z M 796.5,987.5 C 798.924,987.635 800.924,987.968 802.5,988.5C 798.849,992.652 795.016,996.652 791,1000.5C 789.571,994.7 791.404,990.367 796.5,987.5 Z M 807.5,993.5 C 809.296,1003.2 805.296,1007.04 795.5,1005C 800.002,1001.66 804.002,997.831 807.5,993.5 Z"/></g>
<g><path style="opacity:0.116" fill="#fefffe" d="M 172.5,999.5 C 178.436,1001.84 179.103,1005.34 174.5,1010C 174.57,1011.62 175.07,1013.46 176,1015.5C 180,1019.5 184,1023.5 188,1027.5C 188.167,1031.33 186.333,1033.17 182.5,1033C 177.254,1028.42 172.754,1023.26 169,1017.5C 166.418,1010.73 167.585,1004.73 172.5,999.5 Z"/></g>
<g><path style="opacity:0.116" fill="#fefffe" d="M 773.5,999.5 C 779.436,1001.84 780.103,1005.34 775.5,1010C 775.57,1011.62 776.07,1013.46 777,1015.5C 781,1019.5 785,1023.5 789,1027.5C 789.167,1031.33 787.333,1033.17 783.5,1033C 778.254,1028.42 773.754,1023.26 770,1017.5C 767.418,1010.73 768.585,1004.73 773.5,999.5 Z"/></g>
<g><path style="opacity:0.118" fill="#fefffe" d="M 158.5,1013.5 C 160.479,1014.81 162.145,1016.48 163.5,1018.5C 161.833,1020.5 160.167,1022.5 158.5,1024.5C 164.152,1029.65 169.652,1034.99 175,1040.5C 175.167,1044.33 173.333,1046.17 169.5,1046C 164,1040.5 158.5,1035 153,1029.5C 150.984,1031.68 148.817,1033.68 146.5,1035.5C 151.851,1041.02 157.018,1046.68 162,1052.5C 164.702,1059.88 163.202,1066.21 157.5,1071.5C 155.041,1070.21 153.541,1068.21 153,1065.5C 151.421,1067.04 149.587,1068.21 147.5,1069C 131.55,1071.38 124.383,1064.55 126,1048.5C 126.667,1047.17 127.333,1045.83 128,1044.5C 138.369,1034.3 148.535,1023.97 158.5,1013.5 Z M 154.5,1055.5 C 151.775,1056.71 149.441,1058.55 147.5,1061C 139.5,1064.33 134.5,1061.83 132.5,1053.5C 134.235,1048.24 137.402,1043.91 142,1040.5C 146.401,1045.39 150.568,1050.39 154.5,1055.5 Z"/></g>
<g><path style="opacity:0.118" fill="#fefffe" d="M 759.5,1013.5 C 761.479,1014.81 763.145,1016.48 764.5,1018.5C 762.833,1020.5 761.167,1022.5 759.5,1024.5C 765.152,1029.65 770.652,1034.99 776,1040.5C 776.167,1044.33 774.333,1046.17 770.5,1046C 765,1040.5 759.5,1035 754,1029.5C 751.984,1031.68 749.817,1033.68 747.5,1035.5C 752.851,1041.02 758.018,1046.68 763,1052.5C 765.702,1059.88 764.202,1066.21 758.5,1071.5C 756.041,1070.21 754.541,1068.21 754,1065.5C 752.421,1067.04 750.587,1068.21 748.5,1069C 732.55,1071.38 725.383,1064.55 727,1048.5C 727.667,1047.17 728.333,1045.83 729,1044.5C 739.369,1034.3 749.535,1023.97 759.5,1013.5 Z M 755.5,1055.5 C 752.775,1056.71 750.441,1058.55 748.5,1061C 740.5,1064.33 735.5,1061.83 733.5,1053.5C 735.235,1048.24 738.402,1043.91 743,1040.5C 747.401,1045.39 751.568,1050.39 755.5,1055.5 Z"/></g>
<g><path style="opacity:0.118" fill="#fefefe" d="M 114.5,1061.5 C 116.877,1061.78 119.044,1061.78 121,1061.5C 128.225,1065.55 134.392,1070.89 139.5,1077.5C 138.185,1079.32 136.685,1080.98 135,1082.5C 130.199,1078.7 125.699,1074.53 121.5,1070C 114.083,1067.89 109.416,1070.72 107.5,1078.5C 108.098,1079.79 108.598,1081.13 109,1082.5C 113.547,1086.71 117.714,1091.21 121.5,1096C 120.667,1098.17 119.167,1099.67 117,1100.5C 112.378,1096.88 108.045,1092.88 104,1088.5C 97.5981,1075.53 101.098,1066.53 114.5,1061.5 Z"/></g>
<g><path style="opacity:0.118" fill="#fefefe" d="M 715.5,1061.5 C 717.877,1061.78 720.044,1061.78 722,1061.5C 729.225,1065.55 735.392,1070.89 740.5,1077.5C 739.185,1079.32 737.685,1080.98 736,1082.5C 731.199,1078.7 726.699,1074.53 722.5,1070C 715.083,1067.89 710.416,1070.72 708.5,1078.5C 709.098,1079.79 709.598,1081.13 710,1082.5C 714.547,1086.71 718.714,1091.21 722.5,1096C 721.667,1098.17 720.167,1099.67 718,1100.5C 713.378,1096.88 709.045,1092.88 705,1088.5C 698.598,1075.53 702.098,1066.53 715.5,1061.5 Z"/></g>
<g><path style="opacity:0.119" fill="#fefffe" d="M 87.5,1086.5 C 98.8091,1085 105.976,1089.66 109,1100.5C 109.458,1104.34 108.791,1108.01 107,1111.5C 103.5,1115 100,1118.5 96.5,1122C 97.7874,1125.12 97.7874,1128.29 96.5,1131.5C 87.1667,1122.83 78.1667,1113.83 69.5,1104.5C 74.5731,1097.43 80.5731,1091.43 87.5,1086.5 Z M 89.5,1093.5 C 99.8701,1093.7 103.37,1098.7 100,1108.5C 97.3333,1111.17 94.6667,1113.83 92,1116.5C 87.6513,1112.32 83.4846,1107.99 79.5,1103.5C 82.5481,1099.79 85.8815,1096.45 89.5,1093.5 Z"/></g>
<g><path style="opacity:0.119" fill="#fefffe" d="M 688.5,1086.5 C 699.809,1085 706.976,1089.66 710,1100.5C 710.458,1104.34 709.791,1108.01 708,1111.5C 704.5,1115 701,1118.5 697.5,1122C 698.787,1125.12 698.787,1128.29 697.5,1131.5C 688.167,1122.83 679.167,1113.83 670.5,1104.5C 675.573,1097.43 681.573,1091.43 688.5,1086.5 Z M 690.5,1093.5 C 700.87,1093.7 704.37,1098.7 701,1108.5C 698.333,1111.17 695.667,1113.83 693,1116.5C 688.651,1112.32 684.485,1107.99 680.5,1103.5C 683.548,1099.79 686.881,1096.45 690.5,1093.5 Z"/></g>
<g><path style="opacity:0.004" fill="#fefffe" d="M 582.5,1182.5 C 583.167,1182.5 583.5,1182.83 583.5,1183.5C 583.167,1183.17 582.833,1182.83 582.5,1182.5 Z"/></g>
<g><path style="opacity:0.004" fill="#fefffe" d="M 1183.5,1182.5 C 1184.17,1182.5 1184.5,1182.83 1184.5,1183.5C 1184.17,1183.17 1183.83,1182.83 1183.5,1182.5 Z"/></g>
<g><path style="opacity:0.004" fill="#fefffe" d="M 583.5,1183.5 C 584.167,1183.5 584.5,1183.83 584.5,1184.5C 584.167,1184.17 583.833,1183.83 583.5,1183.5 Z"/></g>
<g><path style="opacity:0.004" fill="#fefffe" d="M 1184.5,1183.5 C 1185.17,1183.5 1185.5,1183.83 1185.5,1184.5C 1185.17,1184.17 1184.83,1183.83 1184.5,1183.5 Z"/></g>
<g><path style="opacity:0.004" fill="#fefffe" d="M 584.5,1184.5 C 585.833,1185.17 585.833,1185.17 584.5,1184.5 Z"/></g>
<g><path style="opacity:0.004" fill="#fefffe" d="M 1185.5,1184.5 C 1186.83,1185.17 1186.83,1185.17 1185.5,1184.5 Z"/></g>
</svg>
