<?xml version="1.0" encoding="UTF-8"?>
<!DOCTYPE svg PUBLIC "-//W3C//DTD SVG 1.1//EN" "http://www.w3.org/Graphics/SVG/1.1/DTD/svg11.dtd">
<svg xmlns="http://www.w3.org/2000/svg" version="1.1" width="225px" height="225px" style="shape-rendering:geometricPrecision; text-rendering:geometricPrecision; image-rendering:optimizeQuality; fill-rule:evenodd; clip-rule:evenodd" xmlns:xlink="http://www.w3.org/1999/xlink">
<g><path style="opacity:1" fill="#0c0c0c" d="M 161.5,63.5 C 161.738,65.4044 162.738,66.7377 164.5,67.5C 165.5,67.8333 166.167,68.5 166.5,69.5C 166.427,71.0269 167.094,72.0269 168.5,72.5C 168.738,74.4044 169.738,75.7377 171.5,76.5C 172.6,77.6049 173.267,78.9382 173.5,80.5C 173.66,82.153 174.326,83.4863 175.5,84.5C 176.338,84.8417 176.672,85.5084 176.5,86.5C 176.747,89.8539 177.747,92.8539 179.5,95.5C 180.434,96.5676 180.768,97.901 180.5,99.5C 184.715,133.407 172.381,159.24 143.5,177C 139.658,179.002 135.658,180.502 131.5,181.5C 130.883,181.389 130.383,181.056 130,180.5C 129.667,171.833 129.333,163.167 129,154.5C 128.078,151.009 126.911,147.675 125.5,144.5C 145.472,143.025 155.806,132.192 156.5,112C 156.428,104.202 154.095,97.202 149.5,91C 150.696,85.1761 150.696,79.3428 149.5,73.5C 149.038,72.1201 148.038,71.4534 146.5,71.5C 140.099,72.9509 134.266,75.6175 129,79.5C 126.959,78.5769 124.792,78.2436 122.5,78.5C 122.167,78.5 121.833,78.5 121.5,78.5C 111.77,77.346 102.104,77.346 92.5,78.5C 91.5084,78.6716 90.8417,78.3382 90.5,77.5C 86.353,73.6005 81.353,71.6005 75.5,71.5C 74.1215,75.0014 73.4548,78.6681 73.5,82.5C 73.5046,84.6965 73.838,86.6965 74.5,88.5C 72.2479,93.3466 70.2479,98.3466 68.5,103.5C 67.3493,108.65 67.1826,113.984 68,119.5C 68.3736,121.491 69.207,123.158 70.5,124.5C 71.1098,125.391 71.4431,126.391 71.5,127.5C 71.2291,129.38 71.8958,130.713 73.5,131.5C 78.4903,138.334 85.1569,142.667 93.5,144.5C 94.9516,145.302 96.6183,145.802 98.5,146C 96.5156,148.134 95.1823,150.634 94.5,153.5C 91.3007,156.057 87.634,157.057 83.5,156.5C 78.5,154.833 75.1667,151.5 73.5,146.5C 72.7377,144.738 71.4044,143.738 69.5,143.5C 68.5084,143.672 67.8417,143.338 67.5,142.5C 65.7354,141.539 63.7354,141.205 61.5,141.5C 61.2627,142.791 61.596,143.791 62.5,144.5C 64.3885,145.604 66.0552,146.937 67.5,148.5C 68.1103,150.434 69.1103,152.101 70.5,153.5C 70.6596,155.153 71.3263,156.486 72.5,157.5C 73.3382,157.842 73.6716,158.508 73.5,159.5C 73.5,161.5 74.5,162.5 76.5,162.5C 81.5736,165.985 87.2403,167.318 93.5,166.5C 94.4861,170.97 94.8195,175.637 94.5,180.5C 92.1667,180.5 89.8333,180.5 87.5,180.5C 86.2196,179.069 84.5529,178.402 82.5,178.5C 81.5084,178.672 80.8417,178.338 80.5,177.5C 80.0269,176.094 79.0269,175.427 77.5,175.5C 76.5084,175.672 75.8417,175.338 75.5,174.5C 74.7377,172.738 73.4044,171.738 71.5,171.5C 71.0269,170.094 70.0269,169.427 68.5,169.5C 46.7703,149.807 38.937,125.474 45,96.5C 48.6248,82.5697 55.7915,70.9031 66.5,61.5C 67.5,61.1667 68.1667,60.5 68.5,59.5C 86.6291,44.5245 107.296,39.6912 130.5,45C 142.455,48.6363 152.788,54.8029 161.5,63.5 Z"/></g>
<g><path style="opacity:0.541" fill="#bdbdbd" d="M 68.5,59.5 C 68.1667,60.5 67.5,61.1667 66.5,61.5C 66.5,60.1667 67.1667,59.5 68.5,59.5 Z"/></g>
<g><path style="opacity:0.941" fill="#a6a6a6" d="M 161.5,63.5 C 163.262,64.2623 164.262,65.5956 164.5,67.5C 162.738,66.7377 161.738,65.4044 161.5,63.5 Z"/></g>
<g><path style="opacity:0.808" fill="#bcbcbc" d="M 166.5,69.5 C 167.906,69.9731 168.573,70.9731 168.5,72.5C 167.094,72.0269 166.427,71.0269 166.5,69.5 Z"/></g>
<g><path style="opacity:0.26" fill="#d6d6d6" d="M 90.5,77.5 C 87.7378,76.6205 85.0711,75.4538 82.5,74C 80.4213,73.1923 78.4213,73.359 76.5,74.5C 74.8863,79.0199 74.2197,83.6866 74.5,88.5C 73.838,86.6965 73.5046,84.6965 73.5,82.5C 73.4548,78.6681 74.1215,75.0014 75.5,71.5C 81.353,71.6005 86.353,73.6005 90.5,77.5 Z"/></g>
<g><path style="opacity:0.5" fill="#e7e7e7" d="M 149.5,73.5 C 147.143,73.3367 144.81,73.5034 142.5,74C 138.018,76.3254 133.518,78.4921 129,80.5C 126.6,80.1983 124.434,79.5316 122.5,78.5C 124.792,78.2436 126.959,78.5769 129,79.5C 134.266,75.6175 140.099,72.9509 146.5,71.5C 148.038,71.4534 149.038,72.1201 149.5,73.5 Z"/></g>
<g><path style="opacity:0.957" fill="#b0b0b0" d="M 168.5,72.5 C 170.262,73.2623 171.262,74.5956 171.5,76.5C 169.738,75.7377 168.738,74.4044 168.5,72.5 Z"/></g>
<g><path style="opacity:0.512" fill="#ebebeb" d="M 121.5,78.5 C 112.909,78.116 104.409,78.7827 96,80.5C 94.3009,80.6134 93.1342,79.9468 92.5,78.5C 102.104,77.346 111.77,77.346 121.5,78.5 Z"/></g>
<g><path style="opacity:0.135" fill="#e2e2e2" d="M 173.5,80.5 C 175.104,81.287 175.771,82.6203 175.5,84.5C 174.326,83.4863 173.66,82.153 173.5,80.5 Z"/></g>
<g><path style="opacity:0.463" fill="#efefef" d="M 74.5,88.5 C 75.6129,89.9464 75.7796,91.6131 75,93.5C 69.9855,101.053 68.1521,109.387 69.5,118.5C 68.5128,113.695 68.1795,108.695 68.5,103.5C 70.2479,98.3466 72.2479,93.3466 74.5,88.5 Z"/></g>
<g><path style="opacity:0.784" fill="#d7d7d7" d="M 176.5,86.5 C 178.253,89.1461 179.253,92.1461 179.5,95.5C 177.747,92.8539 176.747,89.8539 176.5,86.5 Z"/></g>
<g><path style="opacity:1" fill="#a6a6a6" d="M 68.5,103.5 C 68.1795,108.695 68.5128,113.695 69.5,118.5C 70.1495,120.435 70.4828,122.435 70.5,124.5C 69.207,123.158 68.3736,121.491 68,119.5C 67.1826,113.984 67.3493,108.65 68.5,103.5 Z"/></g>
<g><path style="opacity:0.471" fill="#ebebeb" d="M 71.5,127.5 C 72.6737,128.514 73.3404,129.847 73.5,131.5C 71.8958,130.713 71.2291,129.38 71.5,127.5 Z"/></g>
<g><path style="opacity:1" fill="#e7e7e7" d="M 67.5,142.5 C 65.2188,142.077 63.5521,142.744 62.5,144.5C 61.596,143.791 61.2627,142.791 61.5,141.5C 63.7354,141.205 65.7354,141.539 67.5,142.5 Z"/></g>
<g><path style="opacity:0.882" fill="#b5b5b5" d="M 69.5,143.5 C 71.4044,143.738 72.7377,144.738 73.5,146.5C 71.5956,146.262 70.2623,145.262 69.5,143.5 Z"/></g>
<g><path style="opacity:0.511" fill="#e2e2e2" d="M 93.5,144.5 C 95.924,144.192 98.2573,144.526 100.5,145.5C 98.1884,148.457 96.6884,151.791 96,155.5C 91.8473,157.576 87.6806,157.91 83.5,156.5C 87.634,157.057 91.3007,156.057 94.5,153.5C 95.1823,150.634 96.5156,148.134 98.5,146C 96.6183,145.802 94.9516,145.302 93.5,144.5 Z"/></g>
<g><path style="opacity:0.988" fill="#bdbdbd" d="M 67.5,148.5 C 69.7271,149.401 70.7271,151.067 70.5,153.5C 69.1103,152.101 68.1103,150.434 67.5,148.5 Z"/></g>
<g><path style="opacity:0.269" fill="#dadada" d="M 70.5,153.5 C 72.1042,154.287 72.7709,155.62 72.5,157.5C 71.3263,156.486 70.6596,155.153 70.5,153.5 Z"/></g>
<g><path style="opacity:1" fill="#999999" d="M 73.5,159.5 C 74.8333,160.167 75.8333,161.167 76.5,162.5C 74.5,162.5 73.5,161.5 73.5,159.5 Z"/></g>
<g><path style="opacity:0.682" fill="#ebebeb" d="M 180.5,99.5 C 186.201,137.935 171.534,165.435 136.5,182C 134.613,182.78 132.946,182.613 131.5,181.5C 135.658,180.502 139.658,179.002 143.5,177C 172.381,159.24 184.715,133.407 180.5,99.5 Z"/></g>
<g><path style="opacity:0.996" fill="#ababab" d="M 68.5,169.5 C 70.0269,169.427 71.0269,170.094 71.5,171.5C 69.9731,171.573 68.9731,170.906 68.5,169.5 Z"/></g>
<g><path style="opacity:1" fill="#a2a2a2" d="M 71.5,171.5 C 73.4044,171.738 74.7377,172.738 75.5,174.5C 73.5956,174.262 72.2623,173.262 71.5,171.5 Z"/></g>
<g><path style="opacity:0.667" fill="#d4d4d4" d="M 77.5,175.5 C 79.0269,175.427 80.0269,176.094 80.5,177.5C 78.9731,177.573 77.9731,176.906 77.5,175.5 Z"/></g>
<g><path style="opacity:0.378" fill="#dddddd" d="M 82.5,178.5 C 84.5529,178.402 86.2196,179.069 87.5,180.5C 85.4471,180.598 83.7804,179.931 82.5,178.5 Z"/></g>
<g><path style="opacity:0.568" fill="#cfcfcf" d="M 93.5,166.5 C 93.56,165.957 93.8933,165.624 94.5,165.5C 95.6628,170.802 95.8295,176.136 95,181.5C 92.2152,182.907 89.7152,182.574 87.5,180.5C 89.8333,180.5 92.1667,180.5 94.5,180.5C 94.8195,175.637 94.4861,170.97 93.5,166.5 Z"/></g>
</svg>
