<?xml version="1.0" encoding="UTF-8"?>
<!DOCTYPE svg PUBLIC "-//W3C//DTD SVG 1.1//EN" "http://www.w3.org/Graphics/SVG/1.1/DTD/svg11.dtd">
<svg xmlns="http://www.w3.org/2000/svg" version="1.1" width="840px" height="783px" style="shape-rendering:geometricPrecision; text-rendering:geometricPrecision; image-rendering:optimizeQuality; fill-rule:evenodd; clip-rule:evenodd" xmlns:xlink="http://www.w3.org/1999/xlink">
<g><path style="opacity:1" fill="#117bb8" d="M 766.5,130.5 C 766.163,134.308 766.663,137.974 768,141.5C 768.667,307.833 768.667,474.167 768,640.5C 766.585,643.958 766.085,647.625 766.5,651.5C 755.875,692.127 730.875,719.793 691.5,734.5C 682.592,736.811 673.592,738.644 664.5,740C 500.5,740.667 336.5,740.667 172.5,740C 164.733,738.898 157.066,737.398 149.5,735.5C 108.431,720.271 82.2639,691.604 71,649.5C 70.8227,645.644 70.3227,641.977 69.5,638.5C 69.1721,473.479 69.5055,308.479 70.5,143.5C 69.927,134.388 71.927,126.054 76.5,118.5C 79.1878,115.446 80.5212,111.78 80.5,107.5C 83.1193,102.38 85.9527,97.3802 89,92.5C 93.9898,87.1672 98.4898,81.5005 102.5,75.5C 118.923,60.2641 137.923,49.4308 159.5,43C 166.329,42.2704 172.996,41.4371 179.5,40.5C 340.098,39.1683 500.765,39.1683 661.5,40.5C 711.972,47.1434 746.472,74.1434 765,121.5C 765.953,124.432 766.453,127.432 766.5,130.5 Z M 254.5,248.5 C 219.57,262.744 191.903,254.078 171.5,222.5C 158.015,188.547 166.682,162.047 197.5,143C 234.335,129.34 261.668,139.673 279.5,174C 287.698,197.901 283.365,219.234 266.5,238C 261.346,240.329 257.346,243.829 254.5,248.5 Z M 571.5,641.5 C 570.817,639.824 569.483,639.157 567.5,639.5C 567.667,576.499 567.5,513.499 567,450.5C 565.798,440.563 564.465,430.563 563,420.5C 552.628,393.872 533.128,382.372 504.5,386C 503.944,386.383 503.611,386.883 503.5,387.5C 480.928,387.882 464.761,398.215 455,418.5C 453.254,423.54 451.587,428.54 450,433.5C 449.329,441.312 448.329,448.979 447,456.5C 446.667,517.5 446.333,578.5 446,639.5C 445.283,640.044 444.783,640.711 444.5,641.5C 412.498,641.667 380.498,641.5 348.5,641C 347.437,639.812 346.103,639.312 344.5,639.5C 344.167,528.498 344.5,417.498 345.5,306.5C 361.515,305.181 377.682,304.515 394,304.5C 409.833,304.667 425.667,304.833 441.5,305C 442,305.5 442.5,306 443,306.5C 443.5,317.828 443.667,329.162 443.5,340.5C 440.567,344.478 441.067,348.144 445,351.5C 445.75,350.874 446.584,350.374 447.5,350C 470.764,314.314 503.931,296.481 547,296.5C 576.101,295.936 602.601,303.603 626.5,319.5C 639.029,331.539 648.862,345.539 656,361.5C 663.03,381.654 667.364,402.321 669,423.5C 669.667,495.5 669.667,567.5 669,639.5C 636.723,641.489 604.223,642.155 571.5,641.5 Z M 188.5,641.5 C 186.5,638.833 184.5,638.833 182.5,641.5C 179.138,641.93 176.305,640.93 174,638.5C 174.327,628.308 173.827,618.141 172.5,608C 172.28,601.87 172.947,595.87 174.5,590C 172.946,582.774 172.279,575.441 172.5,568C 172.825,549.523 172.991,531.023 173,512.5C 173.808,510.577 174.308,508.577 174.5,506.5C 172.946,499.97 172.279,493.303 172.5,486.5C 173.57,447.49 173.57,408.49 172.5,369.5C 172.324,362.065 172.991,354.732 174.5,347.5C 172.288,334.271 171.954,320.938 173.5,307.5C 175.002,306.917 176.335,306.084 177.5,305C 193.667,304.833 209.833,304.667 226,304.5C 242.553,304.507 258.886,305.174 275,306.5C 275.667,417.5 275.667,528.5 275,639.5C 246.392,641.487 217.559,642.154 188.5,641.5 Z"/></g>
<g><path style="opacity:0.105" fill="#e8f0f6" d="M 174.5,40.5 C 176.167,40.5 177.833,40.5 179.5,40.5C 172.996,41.4371 166.329,42.2704 159.5,43C 137.923,49.4308 118.923,60.2641 102.5,75.5C 105.235,71.4255 108.569,67.7588 112.5,64.5C 125.778,54.9226 140.111,47.4226 155.5,42C 161.778,40.8119 168.112,40.3119 174.5,40.5 Z"/></g>
<g><path style="opacity:0.031" fill="#f0f6f9" d="M 102.5,75.5 C 98.4898,81.5005 93.9898,87.1672 89,92.5C 85.9527,97.3802 83.1193,102.38 80.5,107.5C 80.1667,107.5 79.8333,107.5 79.5,107.5C 79.5191,105.94 79.8524,104.44 80.5,103C 85.571,93.7757 91.571,85.2757 98.5,77.5C 99.5769,76.2949 100.91,75.6282 102.5,75.5 Z"/></g>
<g><path style="opacity:0.995" fill="#5595c3" d="M 79.5,107.5 C 79.8333,107.5 80.1667,107.5 80.5,107.5C 80.5212,111.78 79.1878,115.446 76.5,118.5C 76.9476,114.704 77.9476,111.038 79.5,107.5 Z"/></g>
<g><path style="opacity:0.12" fill="#f8fcfe" d="M 167.5,741.5 C 168.167,741.5 168.833,741.5 169.5,741.5C 333.152,742.658 496.819,742.825 660.5,742C 666.803,740.814 673.136,739.814 679.5,739C 683.808,738.054 687.808,736.554 691.5,734.5C 730.875,719.793 755.875,692.127 766.5,651.5C 768.295,646.096 769.461,640.43 770,634.5C 770.667,470.167 770.667,305.833 770,141.5C 769.136,137.616 767.97,133.949 766.5,130.5C 766.453,127.432 765.953,124.432 765,121.5C 746.472,74.1434 711.972,47.1434 661.5,40.5C 500.765,39.1683 340.098,39.1683 179.5,40.5C 177.833,40.5 176.167,40.5 174.5,40.5C 174.611,39.8826 174.944,39.3826 175.5,39C 339.167,38.3333 502.833,38.3333 666.5,39C 711.212,45.633 743.379,69.133 763,109.5C 767.247,120.473 770.58,131.806 773,143.5C 773.667,307.833 773.667,472.167 773,636.5C 766.534,679.141 744.534,710.808 707,731.5C 687.739,739.898 667.573,744.565 646.5,745.5C 494.171,744.75 342.004,744.75 190,745.5C 183.991,744.916 177.991,744.249 172,743.5C 170.014,743.431 168.514,742.765 167.5,741.5 Z"/></g>
<g><path style="opacity:0.086" fill="#f0f6f9" d="M 79.5,107.5 C 77.9476,111.038 76.9476,114.704 76.5,118.5C 71.927,126.054 69.927,134.388 70.5,143.5C 69.7784,143.918 69.2784,144.584 69,145.5C 68.1672,310.001 68.3338,474.334 69.5,638.5C 70.3227,641.977 70.8227,645.644 71,649.5C 82.2639,691.604 108.431,720.271 149.5,735.5C 155.902,738.346 162.569,740.346 169.5,741.5C 168.833,741.5 168.167,741.5 167.5,741.5C 157.395,740.613 147.562,738.28 138,734.5C 100.969,716.104 77.6353,686.771 68,646.5C 65.8296,630.9 65.163,615.234 66,599.5C 66.6289,596.689 67.1289,593.856 67.5,591C 66.4217,584.374 65.755,577.707 65.5,571C 66.7502,557.835 66.7502,544.669 65.5,531.5C 66.0065,523.146 66.6732,514.813 67.5,506.5C 67.5,456.167 67.5,405.833 67.5,355.5C 65.0286,340.827 65.0286,326.16 67.5,311.5C 65.0804,298.809 65.0804,286.143 67.5,273.5C 64.8701,259.169 64.8701,244.835 67.5,230.5C 65.3667,218.099 65.3667,205.766 67.5,193.5C 66.2695,186.553 65.6028,179.553 65.5,172.5C 66.662,161.197 67.4953,149.863 68,138.5C 69.5715,129.803 72.0715,121.303 75.5,113C 76.1448,110.524 77.4782,108.691 79.5,107.5 Z"/></g>
<g><path style="opacity:1" fill="#347eae" d="M 766.5,130.5 C 767.97,133.949 769.136,137.616 770,141.5C 770.667,305.833 770.667,470.167 770,634.5C 769.461,640.43 768.295,646.096 766.5,651.5C 766.085,647.625 766.585,643.958 768,640.5C 768.667,474.167 768.667,307.833 768,141.5C 766.663,137.974 766.163,134.308 766.5,130.5 Z"/></g>
<g><path style="opacity:0.167" fill="#eef6fa" d="M 285.5,206.5 C 284.043,211.186 282.376,215.852 280.5,220.5C 274.95,232.717 266.284,242.05 254.5,248.5C 249.502,252.286 243.836,254.786 237.5,256C 199.081,259.91 174.247,243.41 163,206.5C 160.017,172.6 174.184,149.433 205.5,137C 241.884,129.883 267.717,143.05 283,176.5C 285.108,186.383 285.942,196.383 285.5,206.5 Z M 254.5,248.5 C 257.346,243.829 261.346,240.329 266.5,238C 283.365,219.234 287.698,197.901 279.5,174C 261.668,139.673 234.335,129.34 197.5,143C 166.682,162.047 158.015,188.547 171.5,222.5C 191.903,254.078 219.57,262.744 254.5,248.5 Z"/></g>
<g><path style="opacity:0.937" fill="#579ac5" d="M 285.5,206.5 C 285.56,212.03 283.894,216.696 280.5,220.5C 282.376,215.852 284.043,211.186 285.5,206.5 Z"/></g>
<g><path style="opacity:1" fill="#327faf" d="M 587.5,298.5 C 565.267,294.138 542.933,293.471 520.5,296.5C 523.529,294.925 526.862,293.759 530.5,293C 546.932,291.987 563.265,292.82 579.5,295.5C 582.37,296.257 585.036,297.257 587.5,298.5 Z"/></g>
<g><path style="opacity:1" fill="#297cae" d="M 342.5,303.5 C 342.333,415.5 342.5,527.5 343,639.5C 343.513,640.527 344.013,641.527 344.5,642.5C 343.265,642.279 342.265,641.612 341.5,640.5C 341.167,584.333 340.833,528.167 340.5,472C 340.5,415.496 341.167,359.329 342.5,303.5 Z"/></g>
<g><path style="opacity:0.338" fill="#dceef8" d="M 444.5,347.5 C 443.532,345.393 443.198,343.059 443.5,340.5C 443.667,329.162 443.5,317.828 443,306.5C 442.5,306 442,305.5 441.5,305C 425.667,304.833 409.833,304.667 394,304.5C 377.682,304.515 361.515,305.181 345.5,306.5C 344.5,417.498 344.167,528.498 344.5,639.5C 346.103,639.312 347.437,639.812 348.5,641C 380.498,641.5 412.498,641.667 444.5,641.5C 445.167,641.5 445.833,641.5 446.5,641.5C 446.5,641.833 446.5,642.167 446.5,642.5C 412.5,642.5 378.5,642.5 344.5,642.5C 344.013,641.527 343.513,640.527 343,639.5C 342.5,527.5 342.333,415.5 342.5,303.5C 375.762,302.341 409.095,302.174 442.5,303C 444.474,317.59 445.14,332.424 444.5,347.5 Z"/></g>
<g><path style="opacity:0.27" fill="#e3eef4" d="M 171.5,639.5 C 171.5,527.5 171.5,415.5 171.5,303.5C 206.47,302.167 241.47,302.167 276.5,303.5C 277.667,415.832 277.833,528.165 277,640.5C 276.5,641 276,641.5 275.5,642C 241.162,642.833 206.828,642.667 172.5,641.5C 172.137,640.817 171.804,640.15 171.5,639.5 Z M 188.5,641.5 C 186.5,638.833 184.5,638.833 182.5,641.5C 179.138,641.93 176.305,640.93 174,638.5C 174.327,628.308 173.827,618.141 172.5,608C 172.28,601.87 172.947,595.87 174.5,590C 172.946,582.774 172.279,575.441 172.5,568C 172.825,549.523 172.991,531.023 173,512.5C 173.808,510.577 174.308,508.577 174.5,506.5C 172.946,499.97 172.279,493.303 172.5,486.5C 173.57,447.49 173.57,408.49 172.5,369.5C 172.324,362.065 172.991,354.732 174.5,347.5C 172.288,334.271 171.954,320.938 173.5,307.5C 175.002,306.917 176.335,306.084 177.5,305C 193.667,304.833 209.833,304.667 226,304.5C 242.553,304.507 258.886,305.174 275,306.5C 275.667,417.5 275.667,528.5 275,639.5C 246.392,641.487 217.559,642.154 188.5,641.5 Z"/></g>
<g><path style="opacity:0.14" fill="#e5eff5" d="M 587.5,298.5 C 617.381,305.872 639.548,323.206 654,350.5C 662.547,371.482 668.213,393.149 671,415.5C 671.5,428.162 671.667,440.829 671.5,453.5C 671.826,516.208 671.493,578.875 670.5,641.5C 636.5,642.833 602.5,642.833 568.5,641.5C 569.5,641.5 570.5,641.5 571.5,641.5C 604.223,642.155 636.723,641.489 669,639.5C 669.667,567.5 669.667,495.5 669,423.5C 667.364,402.321 663.03,381.654 656,361.5C 648.862,345.539 639.029,331.539 626.5,319.5C 602.601,303.603 576.101,295.936 547,296.5C 503.931,296.481 470.764,314.314 447.5,350C 446.584,350.374 445.75,350.874 445,351.5C 441.067,348.144 440.567,344.478 443.5,340.5C 443.198,343.059 443.532,345.393 444.5,347.5C 462.75,320.035 488.083,303.035 520.5,296.5C 542.933,293.471 565.267,294.138 587.5,298.5 Z"/></g>
<g><path style="opacity:0.072" fill="#fefeff" d="M 67.5,355.5 C 67.5,405.833 67.5,456.167 67.5,506.5C 66.0075,500.908 65.3408,495.074 65.5,489C 66.7672,449.837 66.7672,410.67 65.5,371.5C 65.3182,365.914 65.9848,360.58 67.5,355.5 Z"/></g>
<g><path style="opacity:0.843" fill="#71a9cc" d="M 495.5,389.5 C 493.343,390.407 491.01,391.073 488.5,391.5C 488.611,390.883 488.944,390.383 489.5,390C 491.473,389.505 493.473,389.338 495.5,389.5 Z"/></g>
<g><path style="opacity:0.165" fill="#f9fcfe" d="M 571.5,641.5 C 570.5,641.5 569.5,641.5 568.5,641.5C 566.5,641.5 565.5,640.5 565.5,638.5C 565.667,573.832 565.5,509.166 565,444.5C 564.218,436.432 562.385,428.765 559.5,421.5C 554.15,401.485 541.15,390.485 520.5,388.5C 515.025,387.511 509.358,387.178 503.5,387.5C 503.611,386.883 503.944,386.383 504.5,386C 533.128,382.372 552.628,393.872 563,420.5C 564.465,430.563 565.798,440.563 567,450.5C 567.5,513.499 567.667,576.499 567.5,639.5C 569.483,639.157 570.817,639.824 571.5,641.5 Z"/></g>
<g><path style="opacity:1" fill="#5291b8" d="M 559.5,421.5 C 562.385,428.765 564.218,436.432 565,444.5C 565.5,509.166 565.667,573.832 565.5,638.5C 564.667,577.335 564.167,516.001 564,454.5C 563.292,443.353 561.792,432.353 559.5,421.5 Z"/></g>
<g><path style="opacity:0.902" fill="#4999c5" d="M 70.5,143.5 C 69.5055,308.479 69.1721,473.479 69.5,638.5C 68.3338,474.334 68.1672,310.001 69,145.5C 69.2784,144.584 69.7784,143.918 70.5,143.5 Z"/></g>
<g><path style="opacity:0.181" fill="#f1f6fa" d="M 503.5,387.5 C 509.358,387.178 515.025,387.511 520.5,388.5C 512.112,388.227 503.779,388.56 495.5,389.5C 493.473,389.338 491.473,389.505 489.5,390C 488.944,390.383 488.611,390.883 488.5,391.5C 478.543,393.907 470.376,399.241 464,407.5C 455.974,419.689 451.307,433.022 450,447.5C 448.746,464.81 448.246,482.143 448.5,499.5C 447.501,545.997 447.168,592.664 447.5,639.5C 447.672,640.492 447.338,641.158 446.5,641.5C 445.833,641.5 445.167,641.5 444.5,641.5C 444.783,640.711 445.283,640.044 446,639.5C 446.333,578.5 446.667,517.5 447,456.5C 448.329,448.979 449.329,441.312 450,433.5C 451.587,428.54 453.254,423.54 455,418.5C 464.761,398.215 480.928,387.882 503.5,387.5 Z"/></g>
<g><path style="opacity:1" fill="#4b90bc" d="M 171.5,303.5 C 171.5,415.5 171.5,527.5 171.5,639.5C 170.167,583.837 169.5,527.837 169.5,471.5C 169.5,415.163 170.167,359.163 171.5,303.5 Z"/></g>
<g><path style="opacity:0.893" fill="#5397bf" d="M 671.5,453.5 C 672.167,484.665 672.5,515.998 672.5,547.5C 672.5,579.174 671.833,610.507 670.5,641.5C 671.493,578.875 671.826,516.208 671.5,453.5 Z"/></g>
<g><path style="opacity:0.633" fill="#adcee1" d="M 448.5,499.5 C 449.728,517.502 449.728,535.502 448.5,553.5C 448.831,582.338 448.498,611.005 447.5,639.5C 447.168,592.664 447.501,545.997 448.5,499.5 Z"/></g>
<g><path style="opacity:0.906" fill="#539ac3" d="M 448.5,553.5 C 449.664,582.33 449.83,611.33 449,640.5C 448.583,641.756 447.75,642.423 446.5,642.5C 446.5,642.167 446.5,641.833 446.5,641.5C 447.338,641.158 447.672,640.492 447.5,639.5C 448.498,611.005 448.831,582.338 448.5,553.5 Z"/></g>
<g><path style="opacity:0.007" fill="#fefffe" d="M 188.5,641.5 C 186.5,641.5 184.5,641.5 182.5,641.5C 184.5,638.833 186.5,638.833 188.5,641.5 Z"/></g>
<g><path style="opacity:1" fill="#3d84b1" d="M 691.5,734.5 C 687.808,736.554 683.808,738.054 679.5,739C 673.136,739.814 666.803,740.814 660.5,742C 496.819,742.825 333.152,742.658 169.5,741.5C 162.569,740.346 155.902,738.346 149.5,735.5C 157.066,737.398 164.733,738.898 172.5,740C 336.5,740.667 500.5,740.667 664.5,740C 673.592,738.644 682.592,736.811 691.5,734.5 Z"/></g>
</svg>
