<?xml version="1.0" encoding="UTF-8"?>
<!DOCTYPE svg PUBLIC "-//W3C//DTD SVG 1.1//EN" "http://www.w3.org/Graphics/SVG/1.1/DTD/svg11.dtd">
<svg xmlns="http://www.w3.org/2000/svg" version="1.1" width="600px" height="600px" style="shape-rendering:geometricPrecision; text-rendering:geometricPrecision; image-rendering:optimizeQuality; fill-rule:evenodd; clip-rule:evenodd" xmlns:xlink="http://www.w3.org/1999/xlink">
<g><path style="opacity:0.439" fill="#d2eaf6" d="M 326.5,57.5 C 326.5,57.8333 326.5,58.1667 326.5,58.5C 313.18,57.7534 299.847,57.42 286.5,57.5C 286.5,57.1667 286.5,56.8333 286.5,56.5C 299.874,55.5025 313.208,55.8358 326.5,57.5 Z"/></g>
<g><path style="opacity:0.269" fill="#eef7fb" d="M 286.5,56.5 C 286.5,56.8333 286.5,57.1667 286.5,57.5C 274.42,58.1783 262.42,59.5116 250.5,61.5C 250.611,60.8826 250.944,60.3826 251.5,60C 263.108,58.2023 274.775,57.0357 286.5,56.5 Z"/></g>
<g><path style="opacity:1" fill="#239cd7" d="M 286.5,57.5 C 299.847,57.42 313.18,57.7534 326.5,58.5C 333.771,59.6593 341.104,60.6593 348.5,61.5C 350.95,61.298 353.283,61.6314 355.5,62.5C 362.032,65.5551 369.032,67.5551 376.5,68.5C 382.075,71.5871 388.075,73.9204 394.5,75.5C 394.833,75.5 395.167,75.5 395.5,75.5C 408.017,81.9234 420.35,88.5901 432.5,95.5C 449.986,107.973 466.319,121.973 481.5,137.5C 543.556,212.484 558.389,296.15 526,388.5C 488.54,475.276 423.04,526.109 329.5,541C 245.106,548.933 174.106,522.1 116.5,460.5C 109.019,450.225 101.519,439.892 94,429.5C 87.7217,418.106 81.5551,406.773 75.5,395.5C 75.5,395.167 75.5,394.833 75.5,394.5C 73.9204,388.075 71.5871,382.075 68.5,376.5C 67.0776,367.468 64.7443,358.802 61.5,350.5C 59.9788,338.852 58.6455,327.186 57.5,315.5C 56.6387,294.341 57.9721,273.341 61.5,252.5C 61.5,252.167 61.5,251.833 61.5,251.5C 64.2726,242.748 66.606,233.748 68.5,224.5C 68.5,224.167 68.5,223.833 68.5,223.5C 72.3625,213.259 76.6958,203.093 81.5,193C 86.33,184.02 91.33,175.187 96.5,166.5C 105.766,153.568 115.766,141.235 126.5,129.5C 130.167,126.5 133.5,123.167 136.5,119.5C 146.661,111.256 156.995,103.256 167.5,95.5C 176.854,89.8222 186.52,84.6555 196.5,80C 205.571,76.0416 214.571,72.2083 223.5,68.5C 223.833,68.5 224.167,68.5 224.5,68.5C 232.791,66.765 240.791,64.4317 248.5,61.5C 249.167,61.5 249.833,61.5 250.5,61.5C 262.42,59.5116 274.42,58.1783 286.5,57.5 Z"/></g>
<g><path style="opacity:0.082" fill="#f1f8fc" d="M 326.5,58.5 C 326.5,58.1667 326.5,57.8333 326.5,57.5C 333.543,57.922 340.543,58.7553 347.5,60C 348.056,60.3826 348.389,60.8826 348.5,61.5C 341.104,60.6593 333.771,59.6593 326.5,58.5 Z"/></g>
<g><path style="opacity:0.1" fill="#e5f2f9" d="M 248.5,61.5 C 240.791,64.4317 232.791,66.765 224.5,68.5C 225.347,67.0337 226.68,66.2004 228.5,66C 235.077,64.0515 241.744,62.5515 248.5,61.5 Z"/></g>
<g><path style="opacity:0.076" fill="#edf6fb" d="M 355.5,62.5 C 362.173,63.8893 368.84,65.3893 375.5,67C 376.056,67.3826 376.389,67.8826 376.5,68.5C 369.032,67.5551 362.032,65.5551 355.5,62.5 Z"/></g>
<g><path style="opacity:0.255" fill="#e1f0f8" d="M 376.5,68.5 C 382.072,69.8566 387.572,71.5233 393,73.5C 394.03,73.8361 394.53,74.5028 394.5,75.5C 388.075,73.9204 382.075,71.5871 376.5,68.5 Z"/></g>
<g><path style="opacity:0.053" fill="#e7f3fa" d="M 223.5,68.5 C 214.571,72.2083 205.571,76.0416 196.5,80C 186.52,84.6555 176.854,89.8222 167.5,95.5C 167.369,94.6236 167.702,93.9569 168.5,93.5C 172.718,91.2708 176.718,88.7708 180.5,86C 185.5,84.2291 190.167,81.8958 194.5,79C 203.781,74.4299 213.448,70.9299 223.5,68.5 Z"/></g>
<g><path style="opacity:0.057" fill="#f4fafc" d="M 395.5,75.5 C 404.677,79.0855 413.677,83.2521 422.5,88C 426.149,90.2981 429.482,92.7981 432.5,95.5C 420.35,88.5901 408.017,81.9234 395.5,75.5 Z"/></g>
<g><path style="opacity:0.235" fill="#e5f3fa" d="M 167.5,95.5 C 156.995,103.256 146.661,111.256 136.5,119.5C 145.482,109.832 155.815,101.832 167.5,95.5 Z"/></g>
<g><path style="opacity:0.129" fill="#f1f7fb" d="M 432.5,95.5 C 439.11,98.8082 445.444,102.642 451.5,107C 461.095,115.717 470.595,124.551 480,133.5C 480.791,134.745 481.291,136.078 481.5,137.5C 466.319,121.973 449.986,107.973 432.5,95.5 Z"/></g>
<g><path style="opacity:0.459" fill="#ebf6fb" d="M 136.5,119.5 C 133.5,123.167 130.167,126.5 126.5,129.5C 128.861,125.139 132.194,121.806 136.5,119.5 Z"/></g>
<g><path style="opacity:0.243" fill="#e5f3fa" d="M 126.5,129.5 C 115.766,141.235 105.766,153.568 96.5,166.5C 97.0447,164.407 97.878,162.407 99,160.5C 106.031,151.476 113.031,142.476 120,133.5C 122.052,131.942 124.219,130.608 126.5,129.5 Z"/></g>
<g><path style="opacity:0.227" fill="#e4f2f9" d="M 96.5,166.5 C 91.33,175.187 86.33,184.02 81.5,193C 76.6958,203.093 72.3625,213.259 68.5,223.5C 74.3295,204.004 82.6629,185.671 93.5,168.5C 94.3569,167.575 95.3569,166.908 96.5,166.5 Z"/></g>
<g><path style="opacity:1" fill="#fefefe" d="M 402.5,192.5 C 413.325,191.157 417.825,195.824 416,206.5C 405.511,262.278 394.511,317.945 383,373.5C 379.268,392.428 374.601,411.094 369,429.5C 362.459,435.126 355.292,435.96 347.5,432C 326.976,415.975 306.309,400.142 285.5,384.5C 275.351,392.816 266.017,401.983 257.5,412C 253.016,416.078 248.016,419.411 242.5,422C 241.167,422.667 239.833,422.667 238.5,422C 233.216,384.509 244.549,353.175 272.5,328C 304.297,300.538 335.797,272.705 367,244.5C 367.495,242.527 367.662,240.527 367.5,238.5C 364.206,238.259 361.206,239.092 358.5,241C 309.67,272.583 260.67,303.916 211.5,335C 209.5,335.667 207.5,335.667 205.5,335C 183.879,328.46 162.545,321.126 141.5,313C 134.021,307.649 133.688,301.983 140.5,296C 226.573,258.037 313.906,223.537 402.5,192.5 Z"/></g>
<g><path style="opacity:0.514" fill="#d5ebf7" d="M 68.5,224.5 C 66.606,233.748 64.2726,242.748 61.5,251.5C 62.2022,243.689 63.7022,236.022 66,228.5C 66.2004,226.68 67.0337,225.347 68.5,224.5 Z"/></g>
<g><path style="opacity:0.075" fill="#e3f2f9" d="M 61.5,252.5 C 57.9721,273.341 56.6387,294.341 57.5,315.5C 57.1667,315.5 56.8333,315.5 56.5,315.5C 55.3706,294.721 56.5372,274.055 60,253.5C 60.3826,252.944 60.8826,252.611 61.5,252.5 Z"/></g>
<g><path style="opacity:0.083" fill="#f0f8fc" d="M 56.5,315.5 C 56.8333,315.5 57.1667,315.5 57.5,315.5C 58.6455,327.186 59.9788,338.852 61.5,350.5C 60.8826,350.389 60.3826,350.056 60,349.5C 58.1428,338.237 56.9761,326.904 56.5,315.5 Z"/></g>
<g><path style="opacity:0.285" fill="#f3f8fa" d="M 481.5,137.5 C 485.464,140.963 489.298,144.63 493,148.5C 537.305,208.872 552.972,276.205 540,350.5C 523.429,420.962 484.596,474.795 423.5,512C 351.886,550.152 278.219,554.485 202.5,525C 170.393,510.361 142.226,490.194 118,464.5C 117.209,463.255 116.709,461.922 116.5,460.5C 174.106,522.1 245.106,548.933 329.5,541C 423.04,526.109 488.54,475.276 526,388.5C 558.389,296.15 543.556,212.484 481.5,137.5 Z"/></g>
<g><path style="opacity:0.081" fill="#eff7fb" d="M 61.5,350.5 C 64.7443,358.802 67.0776,367.468 68.5,376.5C 67.8826,376.389 67.3826,376.056 67,375.5C 64.689,367.258 62.8556,358.924 61.5,350.5 Z"/></g>
<g><path style="opacity:0.116" fill="#e9f4fa" d="M 68.5,376.5 C 71.5871,382.075 73.9204,388.075 75.5,394.5C 73.716,393.426 72.5494,391.76 72,389.5C 70.7245,385.177 69.5578,380.844 68.5,376.5 Z"/></g>
<g><path style="opacity:0.097" fill="#f0f7fb" d="M 75.5,395.5 C 81.5551,406.773 87.7217,418.106 94,429.5C 101.519,439.892 109.019,450.225 116.5,460.5C 115.761,460.631 115.094,460.464 114.5,460C 97.8949,440.692 84.8949,419.192 75.5,395.5 Z"/></g>
</svg>
